%TF.GenerationSoftware,KiCad,Pcbnew,8.0.8*%
%TF.CreationDate,2026-01-13T22:52:37+05:30*%
%TF.ProjectId,pre audio amplifier,70726520-6175-4646-996f-20616d706c69,rev?*%
%TF.SameCoordinates,Original*%
%TF.FileFunction,Soldermask,Bot*%
%TF.FilePolarity,Negative*%
%FSLAX46Y46*%
G04 Gerber Fmt 4.6, Leading zero omitted, Abs format (unit mm)*
G04 Created by KiCad (PCBNEW 8.0.8) date 2026-01-13 22:52:37*
%MOMM*%
%LPD*%
G01*
G04 APERTURE LIST*
%ADD10R,3.000000X3.000000*%
%ADD11C,3.000000*%
%ADD12R,1.050000X1.500000*%
%ADD13O,1.050000X1.500000*%
%ADD14R,1.600000X1.600000*%
%ADD15C,1.600000*%
%ADD16R,2.000000X1.905000*%
%ADD17O,2.000000X1.905000*%
%ADD18O,1.600000X1.600000*%
G04 APERTURE END LIST*
D10*
%TO.C,J1*%
X26592500Y-92250000D03*
D11*
X30472500Y-92250000D03*
%TD*%
D12*
%TO.C,Q2*%
X158040000Y-97140000D03*
D13*
X156770000Y-97140000D03*
X155500000Y-97140000D03*
%TD*%
D14*
%TO.C,U3*%
X45890000Y-57690000D03*
D15*
X43350000Y-57690000D03*
X30650000Y-57690000D03*
X28110000Y-57690000D03*
X28110000Y-65310000D03*
X30650000Y-65310000D03*
X43350000Y-65310000D03*
X45890000Y-65310000D03*
%TD*%
D14*
%TO.C,U5*%
X111195000Y-95110000D03*
D15*
X111195000Y-97650000D03*
X111195000Y-110350000D03*
X111195000Y-112890000D03*
X118815000Y-112890000D03*
X118815000Y-110350000D03*
X118815000Y-97650000D03*
X118815000Y-95110000D03*
%TD*%
D12*
%TO.C,Q4*%
X155230000Y-114860000D03*
D13*
X156500000Y-114860000D03*
X157770000Y-114860000D03*
%TD*%
D16*
%TO.C,Q3*%
X189055000Y-96960000D03*
D17*
X189055000Y-99500000D03*
X189055000Y-102040000D03*
%TD*%
D14*
%TO.C,U4*%
X62390000Y-84690000D03*
D15*
X59850000Y-84690000D03*
X47150000Y-84690000D03*
X44610000Y-84690000D03*
X44610000Y-92310000D03*
X47150000Y-92310000D03*
X59850000Y-92310000D03*
X62390000Y-92310000D03*
%TD*%
D14*
%TO.C,U2*%
X60300000Y-111200000D03*
D18*
X57760000Y-111200000D03*
X55220000Y-111200000D03*
X52680000Y-111200000D03*
X52680000Y-118820000D03*
X55220000Y-118820000D03*
X57760000Y-118820000D03*
X60300000Y-118820000D03*
%TD*%
M02*
