M48
; DRILL file {KiCad 8.0.8} date 2026-01-13T22:52:52+0530
; FORMAT={-:-/ absolute / inch / decimal}
; #@! TF.CreationDate,2026-01-13T22:52:52+05:30
; #@! TF.GenerationSoftware,Kicad,Pcbnew,8.0.8
; #@! TF.FileFunction,Plated,1,2,PTH
FMAT,2
INCH
; #@! TA.AperFunction,Plated,PTH,ComponentDrill
T1C0.0295
; #@! TA.AperFunction,Plated,PTH,ComponentDrill
T2C0.0315
; #@! TA.AperFunction,Plated,PTH,ComponentDrill
T3C0.0433
; #@! TA.AperFunction,Plated,PTH,ComponentDrill
T4C0.0689
%
G90
G05
T1
X6.1114Y-4.522
X6.122Y-3.8244
X6.1614Y-4.522
X6.172Y-3.8244
X6.2114Y-4.522
X6.222Y-3.8244
T2
X1.1067Y-2.2713
X1.1067Y-2.5713
X1.2067Y-2.2713
X1.2067Y-2.5713
X1.7067Y-2.2713
X1.7067Y-2.5713
X1.7563Y-3.3343
X1.7563Y-3.6343
X1.8067Y-2.2713
X1.8067Y-2.5713
X1.8563Y-3.3343
X1.8563Y-3.6343
X2.074Y-4.378
X2.074Y-4.678
X2.174Y-4.378
X2.174Y-4.678
X2.274Y-4.378
X2.274Y-4.678
X2.3563Y-3.3343
X2.3563Y-3.6343
X2.374Y-4.378
X2.374Y-4.678
X2.4563Y-3.3343
X2.4563Y-3.6343
X4.3778Y-3.7445
X4.3778Y-3.8445
X4.3778Y-4.3445
X4.3778Y-4.4445
X4.6778Y-3.7445
X4.6778Y-3.8445
X4.6778Y-4.3445
X4.6778Y-4.4445
T3
X7.4431Y-3.8173
X7.4431Y-3.9173
X7.4431Y-4.0173
T4
X1.0469Y-3.6319
X1.1997Y-3.6319
M30
