%TF.GenerationSoftware,KiCad,Pcbnew,8.0.8*%
%TF.CreationDate,2026-01-13T22:52:51+05:30*%
%TF.ProjectId,pre audio amplifier,70726520-6175-4646-996f-20616d706c69,rev?*%
%TF.SameCoordinates,Original*%
%TF.FileFunction,Drillmap*%
%TF.FilePolarity,Positive*%
%FSLAX45Y45*%
G04 Gerber Fmt 4.5, Leading zero omitted, Abs format (unit mm)*
G04 Created by KiCad (PCBNEW 8.0.8) date 2026-01-13 22:52:51*
%MOMM*%
%LPD*%
G01*
G04 APERTURE LIST*
%ADD10C,0.050000*%
%ADD11C,0.200000*%
%ADD12C,0.100000*%
%ADD13C,0.110000*%
%ADD14C,0.175000*%
G04 APERTURE END LIST*
D10*
X1850000Y-4350000D02*
X20600000Y-4350000D01*
X20600000Y-14650000D01*
X1850000Y-14650000D01*
X1850000Y-4350000D01*
D11*
D12*
X15485500Y-11448500D02*
X15560500Y-11523500D01*
X15560500Y-11448500D02*
X15485500Y-11523500D01*
X15512500Y-9676500D02*
X15587500Y-9751500D01*
X15587500Y-9676500D02*
X15512500Y-9751500D01*
X15612500Y-11448500D02*
X15687500Y-11523500D01*
X15687500Y-11448500D02*
X15612500Y-11523500D01*
X15639500Y-9676500D02*
X15714500Y-9751500D01*
X15714500Y-9676500D02*
X15639500Y-9751500D01*
X15739500Y-11448500D02*
X15814500Y-11523500D01*
X15814500Y-11448500D02*
X15739500Y-11523500D01*
X15766500Y-9676500D02*
X15841500Y-9751500D01*
X15841500Y-9676500D02*
X15766500Y-9751500D01*
X2851000Y-5769000D02*
G75*
G02*
X2771000Y-5769000I-40000J0D01*
G01*
X2771000Y-5769000D02*
G75*
G02*
X2851000Y-5769000I40000J0D01*
G01*
X2851000Y-6531000D02*
G75*
G02*
X2771000Y-6531000I-40000J0D01*
G01*
X2771000Y-6531000D02*
G75*
G02*
X2851000Y-6531000I40000J0D01*
G01*
X3105000Y-5769000D02*
G75*
G02*
X3025000Y-5769000I-40000J0D01*
G01*
X3025000Y-5769000D02*
G75*
G02*
X3105000Y-5769000I40000J0D01*
G01*
X3105000Y-6531000D02*
G75*
G02*
X3025000Y-6531000I-40000J0D01*
G01*
X3025000Y-6531000D02*
G75*
G02*
X3105000Y-6531000I40000J0D01*
G01*
X4375000Y-5769000D02*
G75*
G02*
X4295000Y-5769000I-40000J0D01*
G01*
X4295000Y-5769000D02*
G75*
G02*
X4375000Y-5769000I40000J0D01*
G01*
X4375000Y-6531000D02*
G75*
G02*
X4295000Y-6531000I-40000J0D01*
G01*
X4295000Y-6531000D02*
G75*
G02*
X4375000Y-6531000I40000J0D01*
G01*
X4501000Y-8469000D02*
G75*
G02*
X4421000Y-8469000I-40000J0D01*
G01*
X4421000Y-8469000D02*
G75*
G02*
X4501000Y-8469000I40000J0D01*
G01*
X4501000Y-9231000D02*
G75*
G02*
X4421000Y-9231000I-40000J0D01*
G01*
X4421000Y-9231000D02*
G75*
G02*
X4501000Y-9231000I40000J0D01*
G01*
X4629000Y-5769000D02*
G75*
G02*
X4549000Y-5769000I-40000J0D01*
G01*
X4549000Y-5769000D02*
G75*
G02*
X4629000Y-5769000I40000J0D01*
G01*
X4629000Y-6531000D02*
G75*
G02*
X4549000Y-6531000I-40000J0D01*
G01*
X4549000Y-6531000D02*
G75*
G02*
X4629000Y-6531000I40000J0D01*
G01*
X4755000Y-8469000D02*
G75*
G02*
X4675000Y-8469000I-40000J0D01*
G01*
X4675000Y-8469000D02*
G75*
G02*
X4755000Y-8469000I40000J0D01*
G01*
X4755000Y-9231000D02*
G75*
G02*
X4675000Y-9231000I-40000J0D01*
G01*
X4675000Y-9231000D02*
G75*
G02*
X4755000Y-9231000I40000J0D01*
G01*
X5308000Y-11120000D02*
G75*
G02*
X5228000Y-11120000I-40000J0D01*
G01*
X5228000Y-11120000D02*
G75*
G02*
X5308000Y-11120000I40000J0D01*
G01*
X5308000Y-11882000D02*
G75*
G02*
X5228000Y-11882000I-40000J0D01*
G01*
X5228000Y-11882000D02*
G75*
G02*
X5308000Y-11882000I40000J0D01*
G01*
X5562000Y-11120000D02*
G75*
G02*
X5482000Y-11120000I-40000J0D01*
G01*
X5482000Y-11120000D02*
G75*
G02*
X5562000Y-11120000I40000J0D01*
G01*
X5562000Y-11882000D02*
G75*
G02*
X5482000Y-11882000I-40000J0D01*
G01*
X5482000Y-11882000D02*
G75*
G02*
X5562000Y-11882000I40000J0D01*
G01*
X5816000Y-11120000D02*
G75*
G02*
X5736000Y-11120000I-40000J0D01*
G01*
X5736000Y-11120000D02*
G75*
G02*
X5816000Y-11120000I40000J0D01*
G01*
X5816000Y-11882000D02*
G75*
G02*
X5736000Y-11882000I-40000J0D01*
G01*
X5736000Y-11882000D02*
G75*
G02*
X5816000Y-11882000I40000J0D01*
G01*
X6025000Y-8469000D02*
G75*
G02*
X5945000Y-8469000I-40000J0D01*
G01*
X5945000Y-8469000D02*
G75*
G02*
X6025000Y-8469000I40000J0D01*
G01*
X6025000Y-9231000D02*
G75*
G02*
X5945000Y-9231000I-40000J0D01*
G01*
X5945000Y-9231000D02*
G75*
G02*
X6025000Y-9231000I40000J0D01*
G01*
X6070000Y-11120000D02*
G75*
G02*
X5990000Y-11120000I-40000J0D01*
G01*
X5990000Y-11120000D02*
G75*
G02*
X6070000Y-11120000I40000J0D01*
G01*
X6070000Y-11882000D02*
G75*
G02*
X5990000Y-11882000I-40000J0D01*
G01*
X5990000Y-11882000D02*
G75*
G02*
X6070000Y-11882000I40000J0D01*
G01*
X6279000Y-8469000D02*
G75*
G02*
X6199000Y-8469000I-40000J0D01*
G01*
X6199000Y-8469000D02*
G75*
G02*
X6279000Y-8469000I40000J0D01*
G01*
X6279000Y-9231000D02*
G75*
G02*
X6199000Y-9231000I-40000J0D01*
G01*
X6199000Y-9231000D02*
G75*
G02*
X6279000Y-9231000I40000J0D01*
G01*
X11159500Y-9511000D02*
G75*
G02*
X11079500Y-9511000I-40000J0D01*
G01*
X11079500Y-9511000D02*
G75*
G02*
X11159500Y-9511000I40000J0D01*
G01*
X11159500Y-9765000D02*
G75*
G02*
X11079500Y-9765000I-40000J0D01*
G01*
X11079500Y-9765000D02*
G75*
G02*
X11159500Y-9765000I40000J0D01*
G01*
X11159500Y-11035000D02*
G75*
G02*
X11079500Y-11035000I-40000J0D01*
G01*
X11079500Y-11035000D02*
G75*
G02*
X11159500Y-11035000I40000J0D01*
G01*
X11159500Y-11289000D02*
G75*
G02*
X11079500Y-11289000I-40000J0D01*
G01*
X11079500Y-11289000D02*
G75*
G02*
X11159500Y-11289000I40000J0D01*
G01*
X11921500Y-9511000D02*
G75*
G02*
X11841500Y-9511000I-40000J0D01*
G01*
X11841500Y-9511000D02*
G75*
G02*
X11921500Y-9511000I40000J0D01*
G01*
X11921500Y-9765000D02*
G75*
G02*
X11841500Y-9765000I-40000J0D01*
G01*
X11841500Y-9765000D02*
G75*
G02*
X11921500Y-9765000I40000J0D01*
G01*
X11921500Y-11035000D02*
G75*
G02*
X11841500Y-11035000I-40000J0D01*
G01*
X11841500Y-11035000D02*
G75*
G02*
X11921500Y-11035000I40000J0D01*
G01*
X11921500Y-11289000D02*
G75*
G02*
X11841500Y-11289000I-40000J0D01*
G01*
X11841500Y-11289000D02*
G75*
G02*
X11921500Y-11289000I40000J0D01*
G01*
D13*
X18905500Y-9641000D02*
X18905500Y-9751000D01*
X18850500Y-9696000D02*
X18960500Y-9696000D01*
X18905500Y-9895000D02*
X18905500Y-10005000D01*
X18850500Y-9950000D02*
X18960500Y-9950000D01*
X18905500Y-10149000D02*
X18905500Y-10259000D01*
X18850500Y-10204000D02*
X18960500Y-10204000D01*
D14*
X2721122Y-9286872D02*
X2721122Y-9163128D01*
X2597378Y-9163128D01*
X2597378Y-9286872D01*
X2721122Y-9286872D01*
X3109122Y-9286872D02*
X3109122Y-9163128D01*
X2985378Y-9163128D01*
X2985378Y-9286872D01*
X3109122Y-9286872D01*
D11*
X2108277Y-14963984D02*
X2108277Y-14763984D01*
X2108277Y-14763984D02*
X2155896Y-14763984D01*
X2155896Y-14763984D02*
X2184467Y-14773508D01*
X2184467Y-14773508D02*
X2203515Y-14792555D01*
X2203515Y-14792555D02*
X2213039Y-14811603D01*
X2213039Y-14811603D02*
X2222563Y-14849698D01*
X2222563Y-14849698D02*
X2222563Y-14878269D01*
X2222563Y-14878269D02*
X2213039Y-14916365D01*
X2213039Y-14916365D02*
X2203515Y-14935412D01*
X2203515Y-14935412D02*
X2184467Y-14954460D01*
X2184467Y-14954460D02*
X2155896Y-14963984D01*
X2155896Y-14963984D02*
X2108277Y-14963984D01*
X2308277Y-14963984D02*
X2308277Y-14830650D01*
X2308277Y-14868746D02*
X2317801Y-14849698D01*
X2317801Y-14849698D02*
X2327324Y-14840174D01*
X2327324Y-14840174D02*
X2346372Y-14830650D01*
X2346372Y-14830650D02*
X2365420Y-14830650D01*
X2432086Y-14963984D02*
X2432086Y-14830650D01*
X2432086Y-14763984D02*
X2422563Y-14773508D01*
X2422563Y-14773508D02*
X2432086Y-14783031D01*
X2432086Y-14783031D02*
X2441610Y-14773508D01*
X2441610Y-14773508D02*
X2432086Y-14763984D01*
X2432086Y-14763984D02*
X2432086Y-14783031D01*
X2555896Y-14963984D02*
X2536848Y-14954460D01*
X2536848Y-14954460D02*
X2527324Y-14935412D01*
X2527324Y-14935412D02*
X2527324Y-14763984D01*
X2660658Y-14963984D02*
X2641610Y-14954460D01*
X2641610Y-14954460D02*
X2632086Y-14935412D01*
X2632086Y-14935412D02*
X2632086Y-14763984D01*
X2889229Y-14963984D02*
X2889229Y-14763984D01*
X2889229Y-14763984D02*
X2955896Y-14906841D01*
X2955896Y-14906841D02*
X3022562Y-14763984D01*
X3022562Y-14763984D02*
X3022562Y-14963984D01*
X3203515Y-14963984D02*
X3203515Y-14859222D01*
X3203515Y-14859222D02*
X3193991Y-14840174D01*
X3193991Y-14840174D02*
X3174943Y-14830650D01*
X3174943Y-14830650D02*
X3136848Y-14830650D01*
X3136848Y-14830650D02*
X3117801Y-14840174D01*
X3203515Y-14954460D02*
X3184467Y-14963984D01*
X3184467Y-14963984D02*
X3136848Y-14963984D01*
X3136848Y-14963984D02*
X3117801Y-14954460D01*
X3117801Y-14954460D02*
X3108277Y-14935412D01*
X3108277Y-14935412D02*
X3108277Y-14916365D01*
X3108277Y-14916365D02*
X3117801Y-14897317D01*
X3117801Y-14897317D02*
X3136848Y-14887793D01*
X3136848Y-14887793D02*
X3184467Y-14887793D01*
X3184467Y-14887793D02*
X3203515Y-14878269D01*
X3298753Y-14830650D02*
X3298753Y-15030650D01*
X3298753Y-14840174D02*
X3317801Y-14830650D01*
X3317801Y-14830650D02*
X3355896Y-14830650D01*
X3355896Y-14830650D02*
X3374943Y-14840174D01*
X3374943Y-14840174D02*
X3384467Y-14849698D01*
X3384467Y-14849698D02*
X3393991Y-14868746D01*
X3393991Y-14868746D02*
X3393991Y-14925888D01*
X3393991Y-14925888D02*
X3384467Y-14944936D01*
X3384467Y-14944936D02*
X3374943Y-14954460D01*
X3374943Y-14954460D02*
X3355896Y-14963984D01*
X3355896Y-14963984D02*
X3317801Y-14963984D01*
X3317801Y-14963984D02*
X3298753Y-14954460D01*
X3479705Y-14944936D02*
X3489229Y-14954460D01*
X3489229Y-14954460D02*
X3479705Y-14963984D01*
X3479705Y-14963984D02*
X3470182Y-14954460D01*
X3470182Y-14954460D02*
X3479705Y-14944936D01*
X3479705Y-14944936D02*
X3479705Y-14963984D01*
X3479705Y-14840174D02*
X3489229Y-14849698D01*
X3489229Y-14849698D02*
X3479705Y-14859222D01*
X3479705Y-14859222D02*
X3470182Y-14849698D01*
X3470182Y-14849698D02*
X3479705Y-14840174D01*
X3479705Y-14840174D02*
X3479705Y-14859222D01*
D12*
X1772500Y-15255000D02*
X1847500Y-15330000D01*
X1847500Y-15255000D02*
X1772500Y-15330000D01*
D11*
X2146372Y-15183984D02*
X2165420Y-15183984D01*
X2165420Y-15183984D02*
X2184467Y-15193508D01*
X2184467Y-15193508D02*
X2193991Y-15203031D01*
X2193991Y-15203031D02*
X2203515Y-15222079D01*
X2203515Y-15222079D02*
X2213039Y-15260174D01*
X2213039Y-15260174D02*
X2213039Y-15307793D01*
X2213039Y-15307793D02*
X2203515Y-15345888D01*
X2203515Y-15345888D02*
X2193991Y-15364936D01*
X2193991Y-15364936D02*
X2184467Y-15374460D01*
X2184467Y-15374460D02*
X2165420Y-15383984D01*
X2165420Y-15383984D02*
X2146372Y-15383984D01*
X2146372Y-15383984D02*
X2127324Y-15374460D01*
X2127324Y-15374460D02*
X2117801Y-15364936D01*
X2117801Y-15364936D02*
X2108277Y-15345888D01*
X2108277Y-15345888D02*
X2098753Y-15307793D01*
X2098753Y-15307793D02*
X2098753Y-15260174D01*
X2098753Y-15260174D02*
X2108277Y-15222079D01*
X2108277Y-15222079D02*
X2117801Y-15203031D01*
X2117801Y-15203031D02*
X2127324Y-15193508D01*
X2127324Y-15193508D02*
X2146372Y-15183984D01*
X2298753Y-15364936D02*
X2308277Y-15374460D01*
X2308277Y-15374460D02*
X2298753Y-15383984D01*
X2298753Y-15383984D02*
X2289229Y-15374460D01*
X2289229Y-15374460D02*
X2298753Y-15364936D01*
X2298753Y-15364936D02*
X2298753Y-15383984D01*
X2374944Y-15183984D02*
X2508277Y-15183984D01*
X2508277Y-15183984D02*
X2422563Y-15383984D01*
X2679705Y-15183984D02*
X2584467Y-15183984D01*
X2584467Y-15183984D02*
X2574944Y-15279222D01*
X2574944Y-15279222D02*
X2584467Y-15269698D01*
X2584467Y-15269698D02*
X2603515Y-15260174D01*
X2603515Y-15260174D02*
X2651134Y-15260174D01*
X2651134Y-15260174D02*
X2670182Y-15269698D01*
X2670182Y-15269698D02*
X2679705Y-15279222D01*
X2679705Y-15279222D02*
X2689229Y-15298269D01*
X2689229Y-15298269D02*
X2689229Y-15345888D01*
X2689229Y-15345888D02*
X2679705Y-15364936D01*
X2679705Y-15364936D02*
X2670182Y-15374460D01*
X2670182Y-15374460D02*
X2651134Y-15383984D01*
X2651134Y-15383984D02*
X2603515Y-15383984D01*
X2603515Y-15383984D02*
X2584467Y-15374460D01*
X2584467Y-15374460D02*
X2574944Y-15364936D01*
X2813039Y-15183984D02*
X2832086Y-15183984D01*
X2832086Y-15183984D02*
X2851134Y-15193508D01*
X2851134Y-15193508D02*
X2860658Y-15203031D01*
X2860658Y-15203031D02*
X2870182Y-15222079D01*
X2870182Y-15222079D02*
X2879705Y-15260174D01*
X2879705Y-15260174D02*
X2879705Y-15307793D01*
X2879705Y-15307793D02*
X2870182Y-15345888D01*
X2870182Y-15345888D02*
X2860658Y-15364936D01*
X2860658Y-15364936D02*
X2851134Y-15374460D01*
X2851134Y-15374460D02*
X2832086Y-15383984D01*
X2832086Y-15383984D02*
X2813039Y-15383984D01*
X2813039Y-15383984D02*
X2793991Y-15374460D01*
X2793991Y-15374460D02*
X2784467Y-15364936D01*
X2784467Y-15364936D02*
X2774944Y-15345888D01*
X2774944Y-15345888D02*
X2765420Y-15307793D01*
X2765420Y-15307793D02*
X2765420Y-15260174D01*
X2765420Y-15260174D02*
X2774944Y-15222079D01*
X2774944Y-15222079D02*
X2784467Y-15203031D01*
X2784467Y-15203031D02*
X2793991Y-15193508D01*
X2793991Y-15193508D02*
X2813039Y-15183984D01*
X2965420Y-15383984D02*
X2965420Y-15250650D01*
X2965420Y-15269698D02*
X2974943Y-15260174D01*
X2974943Y-15260174D02*
X2993991Y-15250650D01*
X2993991Y-15250650D02*
X3022563Y-15250650D01*
X3022563Y-15250650D02*
X3041610Y-15260174D01*
X3041610Y-15260174D02*
X3051134Y-15279222D01*
X3051134Y-15279222D02*
X3051134Y-15383984D01*
X3051134Y-15279222D02*
X3060658Y-15260174D01*
X3060658Y-15260174D02*
X3079705Y-15250650D01*
X3079705Y-15250650D02*
X3108277Y-15250650D01*
X3108277Y-15250650D02*
X3127324Y-15260174D01*
X3127324Y-15260174D02*
X3136848Y-15279222D01*
X3136848Y-15279222D02*
X3136848Y-15383984D01*
X3232086Y-15383984D02*
X3232086Y-15250650D01*
X3232086Y-15269698D02*
X3241610Y-15260174D01*
X3241610Y-15260174D02*
X3260658Y-15250650D01*
X3260658Y-15250650D02*
X3289229Y-15250650D01*
X3289229Y-15250650D02*
X3308277Y-15260174D01*
X3308277Y-15260174D02*
X3317801Y-15279222D01*
X3317801Y-15279222D02*
X3317801Y-15383984D01*
X3317801Y-15279222D02*
X3327324Y-15260174D01*
X3327324Y-15260174D02*
X3346372Y-15250650D01*
X3346372Y-15250650D02*
X3374943Y-15250650D01*
X3374943Y-15250650D02*
X3393991Y-15260174D01*
X3393991Y-15260174D02*
X3403515Y-15279222D01*
X3403515Y-15279222D02*
X3403515Y-15383984D01*
X3793991Y-15174460D02*
X3622563Y-15431603D01*
X4051134Y-15183984D02*
X4070182Y-15183984D01*
X4070182Y-15183984D02*
X4089229Y-15193508D01*
X4089229Y-15193508D02*
X4098753Y-15203031D01*
X4098753Y-15203031D02*
X4108277Y-15222079D01*
X4108277Y-15222079D02*
X4117801Y-15260174D01*
X4117801Y-15260174D02*
X4117801Y-15307793D01*
X4117801Y-15307793D02*
X4108277Y-15345888D01*
X4108277Y-15345888D02*
X4098753Y-15364936D01*
X4098753Y-15364936D02*
X4089229Y-15374460D01*
X4089229Y-15374460D02*
X4070182Y-15383984D01*
X4070182Y-15383984D02*
X4051134Y-15383984D01*
X4051134Y-15383984D02*
X4032086Y-15374460D01*
X4032086Y-15374460D02*
X4022563Y-15364936D01*
X4022563Y-15364936D02*
X4013039Y-15345888D01*
X4013039Y-15345888D02*
X4003515Y-15307793D01*
X4003515Y-15307793D02*
X4003515Y-15260174D01*
X4003515Y-15260174D02*
X4013039Y-15222079D01*
X4013039Y-15222079D02*
X4022563Y-15203031D01*
X4022563Y-15203031D02*
X4032086Y-15193508D01*
X4032086Y-15193508D02*
X4051134Y-15183984D01*
X4203515Y-15364936D02*
X4213039Y-15374460D01*
X4213039Y-15374460D02*
X4203515Y-15383984D01*
X4203515Y-15383984D02*
X4193991Y-15374460D01*
X4193991Y-15374460D02*
X4203515Y-15364936D01*
X4203515Y-15364936D02*
X4203515Y-15383984D01*
X4336848Y-15183984D02*
X4355896Y-15183984D01*
X4355896Y-15183984D02*
X4374944Y-15193508D01*
X4374944Y-15193508D02*
X4384468Y-15203031D01*
X4384468Y-15203031D02*
X4393991Y-15222079D01*
X4393991Y-15222079D02*
X4403515Y-15260174D01*
X4403515Y-15260174D02*
X4403515Y-15307793D01*
X4403515Y-15307793D02*
X4393991Y-15345888D01*
X4393991Y-15345888D02*
X4384468Y-15364936D01*
X4384468Y-15364936D02*
X4374944Y-15374460D01*
X4374944Y-15374460D02*
X4355896Y-15383984D01*
X4355896Y-15383984D02*
X4336848Y-15383984D01*
X4336848Y-15383984D02*
X4317801Y-15374460D01*
X4317801Y-15374460D02*
X4308277Y-15364936D01*
X4308277Y-15364936D02*
X4298753Y-15345888D01*
X4298753Y-15345888D02*
X4289229Y-15307793D01*
X4289229Y-15307793D02*
X4289229Y-15260174D01*
X4289229Y-15260174D02*
X4298753Y-15222079D01*
X4298753Y-15222079D02*
X4308277Y-15203031D01*
X4308277Y-15203031D02*
X4317801Y-15193508D01*
X4317801Y-15193508D02*
X4336848Y-15183984D01*
X4479706Y-15203031D02*
X4489229Y-15193508D01*
X4489229Y-15193508D02*
X4508277Y-15183984D01*
X4508277Y-15183984D02*
X4555896Y-15183984D01*
X4555896Y-15183984D02*
X4574944Y-15193508D01*
X4574944Y-15193508D02*
X4584468Y-15203031D01*
X4584468Y-15203031D02*
X4593991Y-15222079D01*
X4593991Y-15222079D02*
X4593991Y-15241127D01*
X4593991Y-15241127D02*
X4584468Y-15269698D01*
X4584468Y-15269698D02*
X4470182Y-15383984D01*
X4470182Y-15383984D02*
X4593991Y-15383984D01*
X4689229Y-15383984D02*
X4727325Y-15383984D01*
X4727325Y-15383984D02*
X4746372Y-15374460D01*
X4746372Y-15374460D02*
X4755896Y-15364936D01*
X4755896Y-15364936D02*
X4774944Y-15336365D01*
X4774944Y-15336365D02*
X4784468Y-15298269D01*
X4784468Y-15298269D02*
X4784468Y-15222079D01*
X4784468Y-15222079D02*
X4774944Y-15203031D01*
X4774944Y-15203031D02*
X4765420Y-15193508D01*
X4765420Y-15193508D02*
X4746372Y-15183984D01*
X4746372Y-15183984D02*
X4708277Y-15183984D01*
X4708277Y-15183984D02*
X4689229Y-15193508D01*
X4689229Y-15193508D02*
X4679706Y-15203031D01*
X4679706Y-15203031D02*
X4670182Y-15222079D01*
X4670182Y-15222079D02*
X4670182Y-15269698D01*
X4670182Y-15269698D02*
X4679706Y-15288746D01*
X4679706Y-15288746D02*
X4689229Y-15298269D01*
X4689229Y-15298269D02*
X4708277Y-15307793D01*
X4708277Y-15307793D02*
X4746372Y-15307793D01*
X4746372Y-15307793D02*
X4765420Y-15298269D01*
X4765420Y-15298269D02*
X4774944Y-15288746D01*
X4774944Y-15288746D02*
X4784468Y-15269698D01*
X4965420Y-15183984D02*
X4870182Y-15183984D01*
X4870182Y-15183984D02*
X4860658Y-15279222D01*
X4860658Y-15279222D02*
X4870182Y-15269698D01*
X4870182Y-15269698D02*
X4889229Y-15260174D01*
X4889229Y-15260174D02*
X4936849Y-15260174D01*
X4936849Y-15260174D02*
X4955896Y-15269698D01*
X4955896Y-15269698D02*
X4965420Y-15279222D01*
X4965420Y-15279222D02*
X4974944Y-15298269D01*
X4974944Y-15298269D02*
X4974944Y-15345888D01*
X4974944Y-15345888D02*
X4965420Y-15364936D01*
X4965420Y-15364936D02*
X4955896Y-15374460D01*
X4955896Y-15374460D02*
X4936849Y-15383984D01*
X4936849Y-15383984D02*
X4889229Y-15383984D01*
X4889229Y-15383984D02*
X4870182Y-15374460D01*
X4870182Y-15374460D02*
X4860658Y-15364936D01*
X5051134Y-15183984D02*
X5051134Y-15222079D01*
X5127325Y-15183984D02*
X5127325Y-15222079D01*
X5422563Y-15460174D02*
X5413039Y-15450650D01*
X5413039Y-15450650D02*
X5393991Y-15422079D01*
X5393991Y-15422079D02*
X5384468Y-15403031D01*
X5384468Y-15403031D02*
X5374944Y-15374460D01*
X5374944Y-15374460D02*
X5365420Y-15326841D01*
X5365420Y-15326841D02*
X5365420Y-15288746D01*
X5365420Y-15288746D02*
X5374944Y-15241127D01*
X5374944Y-15241127D02*
X5384468Y-15212555D01*
X5384468Y-15212555D02*
X5393991Y-15193508D01*
X5393991Y-15193508D02*
X5413039Y-15164936D01*
X5413039Y-15164936D02*
X5422563Y-15155412D01*
X5584468Y-15183984D02*
X5546372Y-15183984D01*
X5546372Y-15183984D02*
X5527325Y-15193508D01*
X5527325Y-15193508D02*
X5517801Y-15203031D01*
X5517801Y-15203031D02*
X5498753Y-15231603D01*
X5498753Y-15231603D02*
X5489230Y-15269698D01*
X5489230Y-15269698D02*
X5489230Y-15345888D01*
X5489230Y-15345888D02*
X5498753Y-15364936D01*
X5498753Y-15364936D02*
X5508277Y-15374460D01*
X5508277Y-15374460D02*
X5527325Y-15383984D01*
X5527325Y-15383984D02*
X5565420Y-15383984D01*
X5565420Y-15383984D02*
X5584468Y-15374460D01*
X5584468Y-15374460D02*
X5593991Y-15364936D01*
X5593991Y-15364936D02*
X5603515Y-15345888D01*
X5603515Y-15345888D02*
X5603515Y-15298269D01*
X5603515Y-15298269D02*
X5593991Y-15279222D01*
X5593991Y-15279222D02*
X5584468Y-15269698D01*
X5584468Y-15269698D02*
X5565420Y-15260174D01*
X5565420Y-15260174D02*
X5527325Y-15260174D01*
X5527325Y-15260174D02*
X5508277Y-15269698D01*
X5508277Y-15269698D02*
X5498753Y-15279222D01*
X5498753Y-15279222D02*
X5489230Y-15298269D01*
X5841610Y-15383984D02*
X5841610Y-15183984D01*
X5927325Y-15383984D02*
X5927325Y-15279222D01*
X5927325Y-15279222D02*
X5917801Y-15260174D01*
X5917801Y-15260174D02*
X5898753Y-15250650D01*
X5898753Y-15250650D02*
X5870182Y-15250650D01*
X5870182Y-15250650D02*
X5851134Y-15260174D01*
X5851134Y-15260174D02*
X5841610Y-15269698D01*
X6051134Y-15383984D02*
X6032087Y-15374460D01*
X6032087Y-15374460D02*
X6022563Y-15364936D01*
X6022563Y-15364936D02*
X6013039Y-15345888D01*
X6013039Y-15345888D02*
X6013039Y-15288746D01*
X6013039Y-15288746D02*
X6022563Y-15269698D01*
X6022563Y-15269698D02*
X6032087Y-15260174D01*
X6032087Y-15260174D02*
X6051134Y-15250650D01*
X6051134Y-15250650D02*
X6079706Y-15250650D01*
X6079706Y-15250650D02*
X6098753Y-15260174D01*
X6098753Y-15260174D02*
X6108277Y-15269698D01*
X6108277Y-15269698D02*
X6117801Y-15288746D01*
X6117801Y-15288746D02*
X6117801Y-15345888D01*
X6117801Y-15345888D02*
X6108277Y-15364936D01*
X6108277Y-15364936D02*
X6098753Y-15374460D01*
X6098753Y-15374460D02*
X6079706Y-15383984D01*
X6079706Y-15383984D02*
X6051134Y-15383984D01*
X6232087Y-15383984D02*
X6213039Y-15374460D01*
X6213039Y-15374460D02*
X6203515Y-15355412D01*
X6203515Y-15355412D02*
X6203515Y-15183984D01*
X6384468Y-15374460D02*
X6365420Y-15383984D01*
X6365420Y-15383984D02*
X6327325Y-15383984D01*
X6327325Y-15383984D02*
X6308277Y-15374460D01*
X6308277Y-15374460D02*
X6298753Y-15355412D01*
X6298753Y-15355412D02*
X6298753Y-15279222D01*
X6298753Y-15279222D02*
X6308277Y-15260174D01*
X6308277Y-15260174D02*
X6327325Y-15250650D01*
X6327325Y-15250650D02*
X6365420Y-15250650D01*
X6365420Y-15250650D02*
X6384468Y-15260174D01*
X6384468Y-15260174D02*
X6393991Y-15279222D01*
X6393991Y-15279222D02*
X6393991Y-15298269D01*
X6393991Y-15298269D02*
X6298753Y-15317317D01*
X6470182Y-15374460D02*
X6489230Y-15383984D01*
X6489230Y-15383984D02*
X6527325Y-15383984D01*
X6527325Y-15383984D02*
X6546372Y-15374460D01*
X6546372Y-15374460D02*
X6555896Y-15355412D01*
X6555896Y-15355412D02*
X6555896Y-15345888D01*
X6555896Y-15345888D02*
X6546372Y-15326841D01*
X6546372Y-15326841D02*
X6527325Y-15317317D01*
X6527325Y-15317317D02*
X6498753Y-15317317D01*
X6498753Y-15317317D02*
X6479706Y-15307793D01*
X6479706Y-15307793D02*
X6470182Y-15288746D01*
X6470182Y-15288746D02*
X6470182Y-15279222D01*
X6470182Y-15279222D02*
X6479706Y-15260174D01*
X6479706Y-15260174D02*
X6498753Y-15250650D01*
X6498753Y-15250650D02*
X6527325Y-15250650D01*
X6527325Y-15250650D02*
X6546372Y-15260174D01*
X6622563Y-15460174D02*
X6632087Y-15450650D01*
X6632087Y-15450650D02*
X6651134Y-15422079D01*
X6651134Y-15422079D02*
X6660658Y-15403031D01*
X6660658Y-15403031D02*
X6670182Y-15374460D01*
X6670182Y-15374460D02*
X6679706Y-15326841D01*
X6679706Y-15326841D02*
X6679706Y-15288746D01*
X6679706Y-15288746D02*
X6670182Y-15241127D01*
X6670182Y-15241127D02*
X6660658Y-15212555D01*
X6660658Y-15212555D02*
X6651134Y-15193508D01*
X6651134Y-15193508D02*
X6632087Y-15164936D01*
X6632087Y-15164936D02*
X6622563Y-15155412D01*
D12*
X1847500Y-15556500D02*
G75*
G02*
X1767500Y-15556500I-40000J0D01*
G01*
X1767500Y-15556500D02*
G75*
G02*
X1847500Y-15556500I40000J0D01*
G01*
D11*
X2146372Y-15447984D02*
X2165420Y-15447984D01*
X2165420Y-15447984D02*
X2184467Y-15457508D01*
X2184467Y-15457508D02*
X2193991Y-15467031D01*
X2193991Y-15467031D02*
X2203515Y-15486079D01*
X2203515Y-15486079D02*
X2213039Y-15524174D01*
X2213039Y-15524174D02*
X2213039Y-15571793D01*
X2213039Y-15571793D02*
X2203515Y-15609888D01*
X2203515Y-15609888D02*
X2193991Y-15628936D01*
X2193991Y-15628936D02*
X2184467Y-15638460D01*
X2184467Y-15638460D02*
X2165420Y-15647984D01*
X2165420Y-15647984D02*
X2146372Y-15647984D01*
X2146372Y-15647984D02*
X2127324Y-15638460D01*
X2127324Y-15638460D02*
X2117801Y-15628936D01*
X2117801Y-15628936D02*
X2108277Y-15609888D01*
X2108277Y-15609888D02*
X2098753Y-15571793D01*
X2098753Y-15571793D02*
X2098753Y-15524174D01*
X2098753Y-15524174D02*
X2108277Y-15486079D01*
X2108277Y-15486079D02*
X2117801Y-15467031D01*
X2117801Y-15467031D02*
X2127324Y-15457508D01*
X2127324Y-15457508D02*
X2146372Y-15447984D01*
X2298753Y-15628936D02*
X2308277Y-15638460D01*
X2308277Y-15638460D02*
X2298753Y-15647984D01*
X2298753Y-15647984D02*
X2289229Y-15638460D01*
X2289229Y-15638460D02*
X2298753Y-15628936D01*
X2298753Y-15628936D02*
X2298753Y-15647984D01*
X2422563Y-15533698D02*
X2403515Y-15524174D01*
X2403515Y-15524174D02*
X2393991Y-15514650D01*
X2393991Y-15514650D02*
X2384467Y-15495603D01*
X2384467Y-15495603D02*
X2384467Y-15486079D01*
X2384467Y-15486079D02*
X2393991Y-15467031D01*
X2393991Y-15467031D02*
X2403515Y-15457508D01*
X2403515Y-15457508D02*
X2422563Y-15447984D01*
X2422563Y-15447984D02*
X2460658Y-15447984D01*
X2460658Y-15447984D02*
X2479705Y-15457508D01*
X2479705Y-15457508D02*
X2489229Y-15467031D01*
X2489229Y-15467031D02*
X2498753Y-15486079D01*
X2498753Y-15486079D02*
X2498753Y-15495603D01*
X2498753Y-15495603D02*
X2489229Y-15514650D01*
X2489229Y-15514650D02*
X2479705Y-15524174D01*
X2479705Y-15524174D02*
X2460658Y-15533698D01*
X2460658Y-15533698D02*
X2422563Y-15533698D01*
X2422563Y-15533698D02*
X2403515Y-15543222D01*
X2403515Y-15543222D02*
X2393991Y-15552746D01*
X2393991Y-15552746D02*
X2384467Y-15571793D01*
X2384467Y-15571793D02*
X2384467Y-15609888D01*
X2384467Y-15609888D02*
X2393991Y-15628936D01*
X2393991Y-15628936D02*
X2403515Y-15638460D01*
X2403515Y-15638460D02*
X2422563Y-15647984D01*
X2422563Y-15647984D02*
X2460658Y-15647984D01*
X2460658Y-15647984D02*
X2479705Y-15638460D01*
X2479705Y-15638460D02*
X2489229Y-15628936D01*
X2489229Y-15628936D02*
X2498753Y-15609888D01*
X2498753Y-15609888D02*
X2498753Y-15571793D01*
X2498753Y-15571793D02*
X2489229Y-15552746D01*
X2489229Y-15552746D02*
X2479705Y-15543222D01*
X2479705Y-15543222D02*
X2460658Y-15533698D01*
X2622563Y-15447984D02*
X2641610Y-15447984D01*
X2641610Y-15447984D02*
X2660658Y-15457508D01*
X2660658Y-15457508D02*
X2670182Y-15467031D01*
X2670182Y-15467031D02*
X2679705Y-15486079D01*
X2679705Y-15486079D02*
X2689229Y-15524174D01*
X2689229Y-15524174D02*
X2689229Y-15571793D01*
X2689229Y-15571793D02*
X2679705Y-15609888D01*
X2679705Y-15609888D02*
X2670182Y-15628936D01*
X2670182Y-15628936D02*
X2660658Y-15638460D01*
X2660658Y-15638460D02*
X2641610Y-15647984D01*
X2641610Y-15647984D02*
X2622563Y-15647984D01*
X2622563Y-15647984D02*
X2603515Y-15638460D01*
X2603515Y-15638460D02*
X2593991Y-15628936D01*
X2593991Y-15628936D02*
X2584467Y-15609888D01*
X2584467Y-15609888D02*
X2574944Y-15571793D01*
X2574944Y-15571793D02*
X2574944Y-15524174D01*
X2574944Y-15524174D02*
X2584467Y-15486079D01*
X2584467Y-15486079D02*
X2593991Y-15467031D01*
X2593991Y-15467031D02*
X2603515Y-15457508D01*
X2603515Y-15457508D02*
X2622563Y-15447984D01*
X2813039Y-15447984D02*
X2832086Y-15447984D01*
X2832086Y-15447984D02*
X2851134Y-15457508D01*
X2851134Y-15457508D02*
X2860658Y-15467031D01*
X2860658Y-15467031D02*
X2870182Y-15486079D01*
X2870182Y-15486079D02*
X2879705Y-15524174D01*
X2879705Y-15524174D02*
X2879705Y-15571793D01*
X2879705Y-15571793D02*
X2870182Y-15609888D01*
X2870182Y-15609888D02*
X2860658Y-15628936D01*
X2860658Y-15628936D02*
X2851134Y-15638460D01*
X2851134Y-15638460D02*
X2832086Y-15647984D01*
X2832086Y-15647984D02*
X2813039Y-15647984D01*
X2813039Y-15647984D02*
X2793991Y-15638460D01*
X2793991Y-15638460D02*
X2784467Y-15628936D01*
X2784467Y-15628936D02*
X2774944Y-15609888D01*
X2774944Y-15609888D02*
X2765420Y-15571793D01*
X2765420Y-15571793D02*
X2765420Y-15524174D01*
X2765420Y-15524174D02*
X2774944Y-15486079D01*
X2774944Y-15486079D02*
X2784467Y-15467031D01*
X2784467Y-15467031D02*
X2793991Y-15457508D01*
X2793991Y-15457508D02*
X2813039Y-15447984D01*
X2965420Y-15647984D02*
X2965420Y-15514650D01*
X2965420Y-15533698D02*
X2974943Y-15524174D01*
X2974943Y-15524174D02*
X2993991Y-15514650D01*
X2993991Y-15514650D02*
X3022563Y-15514650D01*
X3022563Y-15514650D02*
X3041610Y-15524174D01*
X3041610Y-15524174D02*
X3051134Y-15543222D01*
X3051134Y-15543222D02*
X3051134Y-15647984D01*
X3051134Y-15543222D02*
X3060658Y-15524174D01*
X3060658Y-15524174D02*
X3079705Y-15514650D01*
X3079705Y-15514650D02*
X3108277Y-15514650D01*
X3108277Y-15514650D02*
X3127324Y-15524174D01*
X3127324Y-15524174D02*
X3136848Y-15543222D01*
X3136848Y-15543222D02*
X3136848Y-15647984D01*
X3232086Y-15647984D02*
X3232086Y-15514650D01*
X3232086Y-15533698D02*
X3241610Y-15524174D01*
X3241610Y-15524174D02*
X3260658Y-15514650D01*
X3260658Y-15514650D02*
X3289229Y-15514650D01*
X3289229Y-15514650D02*
X3308277Y-15524174D01*
X3308277Y-15524174D02*
X3317801Y-15543222D01*
X3317801Y-15543222D02*
X3317801Y-15647984D01*
X3317801Y-15543222D02*
X3327324Y-15524174D01*
X3327324Y-15524174D02*
X3346372Y-15514650D01*
X3346372Y-15514650D02*
X3374943Y-15514650D01*
X3374943Y-15514650D02*
X3393991Y-15524174D01*
X3393991Y-15524174D02*
X3403515Y-15543222D01*
X3403515Y-15543222D02*
X3403515Y-15647984D01*
X3793991Y-15438460D02*
X3622563Y-15695603D01*
X4051134Y-15447984D02*
X4070182Y-15447984D01*
X4070182Y-15447984D02*
X4089229Y-15457508D01*
X4089229Y-15457508D02*
X4098753Y-15467031D01*
X4098753Y-15467031D02*
X4108277Y-15486079D01*
X4108277Y-15486079D02*
X4117801Y-15524174D01*
X4117801Y-15524174D02*
X4117801Y-15571793D01*
X4117801Y-15571793D02*
X4108277Y-15609888D01*
X4108277Y-15609888D02*
X4098753Y-15628936D01*
X4098753Y-15628936D02*
X4089229Y-15638460D01*
X4089229Y-15638460D02*
X4070182Y-15647984D01*
X4070182Y-15647984D02*
X4051134Y-15647984D01*
X4051134Y-15647984D02*
X4032086Y-15638460D01*
X4032086Y-15638460D02*
X4022563Y-15628936D01*
X4022563Y-15628936D02*
X4013039Y-15609888D01*
X4013039Y-15609888D02*
X4003515Y-15571793D01*
X4003515Y-15571793D02*
X4003515Y-15524174D01*
X4003515Y-15524174D02*
X4013039Y-15486079D01*
X4013039Y-15486079D02*
X4022563Y-15467031D01*
X4022563Y-15467031D02*
X4032086Y-15457508D01*
X4032086Y-15457508D02*
X4051134Y-15447984D01*
X4203515Y-15628936D02*
X4213039Y-15638460D01*
X4213039Y-15638460D02*
X4203515Y-15647984D01*
X4203515Y-15647984D02*
X4193991Y-15638460D01*
X4193991Y-15638460D02*
X4203515Y-15628936D01*
X4203515Y-15628936D02*
X4203515Y-15647984D01*
X4336848Y-15447984D02*
X4355896Y-15447984D01*
X4355896Y-15447984D02*
X4374944Y-15457508D01*
X4374944Y-15457508D02*
X4384468Y-15467031D01*
X4384468Y-15467031D02*
X4393991Y-15486079D01*
X4393991Y-15486079D02*
X4403515Y-15524174D01*
X4403515Y-15524174D02*
X4403515Y-15571793D01*
X4403515Y-15571793D02*
X4393991Y-15609888D01*
X4393991Y-15609888D02*
X4384468Y-15628936D01*
X4384468Y-15628936D02*
X4374944Y-15638460D01*
X4374944Y-15638460D02*
X4355896Y-15647984D01*
X4355896Y-15647984D02*
X4336848Y-15647984D01*
X4336848Y-15647984D02*
X4317801Y-15638460D01*
X4317801Y-15638460D02*
X4308277Y-15628936D01*
X4308277Y-15628936D02*
X4298753Y-15609888D01*
X4298753Y-15609888D02*
X4289229Y-15571793D01*
X4289229Y-15571793D02*
X4289229Y-15524174D01*
X4289229Y-15524174D02*
X4298753Y-15486079D01*
X4298753Y-15486079D02*
X4308277Y-15467031D01*
X4308277Y-15467031D02*
X4317801Y-15457508D01*
X4317801Y-15457508D02*
X4336848Y-15447984D01*
X4470182Y-15447984D02*
X4593991Y-15447984D01*
X4593991Y-15447984D02*
X4527325Y-15524174D01*
X4527325Y-15524174D02*
X4555896Y-15524174D01*
X4555896Y-15524174D02*
X4574944Y-15533698D01*
X4574944Y-15533698D02*
X4584468Y-15543222D01*
X4584468Y-15543222D02*
X4593991Y-15562269D01*
X4593991Y-15562269D02*
X4593991Y-15609888D01*
X4593991Y-15609888D02*
X4584468Y-15628936D01*
X4584468Y-15628936D02*
X4574944Y-15638460D01*
X4574944Y-15638460D02*
X4555896Y-15647984D01*
X4555896Y-15647984D02*
X4498753Y-15647984D01*
X4498753Y-15647984D02*
X4479706Y-15638460D01*
X4479706Y-15638460D02*
X4470182Y-15628936D01*
X4784468Y-15647984D02*
X4670182Y-15647984D01*
X4727325Y-15647984D02*
X4727325Y-15447984D01*
X4727325Y-15447984D02*
X4708277Y-15476555D01*
X4708277Y-15476555D02*
X4689229Y-15495603D01*
X4689229Y-15495603D02*
X4670182Y-15505127D01*
X4965420Y-15447984D02*
X4870182Y-15447984D01*
X4870182Y-15447984D02*
X4860658Y-15543222D01*
X4860658Y-15543222D02*
X4870182Y-15533698D01*
X4870182Y-15533698D02*
X4889229Y-15524174D01*
X4889229Y-15524174D02*
X4936849Y-15524174D01*
X4936849Y-15524174D02*
X4955896Y-15533698D01*
X4955896Y-15533698D02*
X4965420Y-15543222D01*
X4965420Y-15543222D02*
X4974944Y-15562269D01*
X4974944Y-15562269D02*
X4974944Y-15609888D01*
X4974944Y-15609888D02*
X4965420Y-15628936D01*
X4965420Y-15628936D02*
X4955896Y-15638460D01*
X4955896Y-15638460D02*
X4936849Y-15647984D01*
X4936849Y-15647984D02*
X4889229Y-15647984D01*
X4889229Y-15647984D02*
X4870182Y-15638460D01*
X4870182Y-15638460D02*
X4860658Y-15628936D01*
X5051134Y-15447984D02*
X5051134Y-15486079D01*
X5127325Y-15447984D02*
X5127325Y-15486079D01*
X5422563Y-15724174D02*
X5413039Y-15714650D01*
X5413039Y-15714650D02*
X5393991Y-15686079D01*
X5393991Y-15686079D02*
X5384468Y-15667031D01*
X5384468Y-15667031D02*
X5374944Y-15638460D01*
X5374944Y-15638460D02*
X5365420Y-15590841D01*
X5365420Y-15590841D02*
X5365420Y-15552746D01*
X5365420Y-15552746D02*
X5374944Y-15505127D01*
X5374944Y-15505127D02*
X5384468Y-15476555D01*
X5384468Y-15476555D02*
X5393991Y-15457508D01*
X5393991Y-15457508D02*
X5413039Y-15428936D01*
X5413039Y-15428936D02*
X5422563Y-15419412D01*
X5479706Y-15447984D02*
X5603515Y-15447984D01*
X5603515Y-15447984D02*
X5536849Y-15524174D01*
X5536849Y-15524174D02*
X5565420Y-15524174D01*
X5565420Y-15524174D02*
X5584468Y-15533698D01*
X5584468Y-15533698D02*
X5593991Y-15543222D01*
X5593991Y-15543222D02*
X5603515Y-15562269D01*
X5603515Y-15562269D02*
X5603515Y-15609888D01*
X5603515Y-15609888D02*
X5593991Y-15628936D01*
X5593991Y-15628936D02*
X5584468Y-15638460D01*
X5584468Y-15638460D02*
X5565420Y-15647984D01*
X5565420Y-15647984D02*
X5508277Y-15647984D01*
X5508277Y-15647984D02*
X5489230Y-15638460D01*
X5489230Y-15638460D02*
X5479706Y-15628936D01*
X5679706Y-15467031D02*
X5689229Y-15457508D01*
X5689229Y-15457508D02*
X5708277Y-15447984D01*
X5708277Y-15447984D02*
X5755896Y-15447984D01*
X5755896Y-15447984D02*
X5774944Y-15457508D01*
X5774944Y-15457508D02*
X5784468Y-15467031D01*
X5784468Y-15467031D02*
X5793991Y-15486079D01*
X5793991Y-15486079D02*
X5793991Y-15505127D01*
X5793991Y-15505127D02*
X5784468Y-15533698D01*
X5784468Y-15533698D02*
X5670182Y-15647984D01*
X5670182Y-15647984D02*
X5793991Y-15647984D01*
X6032087Y-15647984D02*
X6032087Y-15447984D01*
X6117801Y-15647984D02*
X6117801Y-15543222D01*
X6117801Y-15543222D02*
X6108277Y-15524174D01*
X6108277Y-15524174D02*
X6089230Y-15514650D01*
X6089230Y-15514650D02*
X6060658Y-15514650D01*
X6060658Y-15514650D02*
X6041610Y-15524174D01*
X6041610Y-15524174D02*
X6032087Y-15533698D01*
X6241610Y-15647984D02*
X6222563Y-15638460D01*
X6222563Y-15638460D02*
X6213039Y-15628936D01*
X6213039Y-15628936D02*
X6203515Y-15609888D01*
X6203515Y-15609888D02*
X6203515Y-15552746D01*
X6203515Y-15552746D02*
X6213039Y-15533698D01*
X6213039Y-15533698D02*
X6222563Y-15524174D01*
X6222563Y-15524174D02*
X6241610Y-15514650D01*
X6241610Y-15514650D02*
X6270182Y-15514650D01*
X6270182Y-15514650D02*
X6289230Y-15524174D01*
X6289230Y-15524174D02*
X6298753Y-15533698D01*
X6298753Y-15533698D02*
X6308277Y-15552746D01*
X6308277Y-15552746D02*
X6308277Y-15609888D01*
X6308277Y-15609888D02*
X6298753Y-15628936D01*
X6298753Y-15628936D02*
X6289230Y-15638460D01*
X6289230Y-15638460D02*
X6270182Y-15647984D01*
X6270182Y-15647984D02*
X6241610Y-15647984D01*
X6422563Y-15647984D02*
X6403515Y-15638460D01*
X6403515Y-15638460D02*
X6393991Y-15619412D01*
X6393991Y-15619412D02*
X6393991Y-15447984D01*
X6574944Y-15638460D02*
X6555896Y-15647984D01*
X6555896Y-15647984D02*
X6517801Y-15647984D01*
X6517801Y-15647984D02*
X6498753Y-15638460D01*
X6498753Y-15638460D02*
X6489230Y-15619412D01*
X6489230Y-15619412D02*
X6489230Y-15543222D01*
X6489230Y-15543222D02*
X6498753Y-15524174D01*
X6498753Y-15524174D02*
X6517801Y-15514650D01*
X6517801Y-15514650D02*
X6555896Y-15514650D01*
X6555896Y-15514650D02*
X6574944Y-15524174D01*
X6574944Y-15524174D02*
X6584468Y-15543222D01*
X6584468Y-15543222D02*
X6584468Y-15562269D01*
X6584468Y-15562269D02*
X6489230Y-15581317D01*
X6660658Y-15638460D02*
X6679706Y-15647984D01*
X6679706Y-15647984D02*
X6717801Y-15647984D01*
X6717801Y-15647984D02*
X6736849Y-15638460D01*
X6736849Y-15638460D02*
X6746372Y-15619412D01*
X6746372Y-15619412D02*
X6746372Y-15609888D01*
X6746372Y-15609888D02*
X6736849Y-15590841D01*
X6736849Y-15590841D02*
X6717801Y-15581317D01*
X6717801Y-15581317D02*
X6689230Y-15581317D01*
X6689230Y-15581317D02*
X6670182Y-15571793D01*
X6670182Y-15571793D02*
X6660658Y-15552746D01*
X6660658Y-15552746D02*
X6660658Y-15543222D01*
X6660658Y-15543222D02*
X6670182Y-15524174D01*
X6670182Y-15524174D02*
X6689230Y-15514650D01*
X6689230Y-15514650D02*
X6717801Y-15514650D01*
X6717801Y-15514650D02*
X6736849Y-15524174D01*
X6813039Y-15724174D02*
X6822563Y-15714650D01*
X6822563Y-15714650D02*
X6841611Y-15686079D01*
X6841611Y-15686079D02*
X6851134Y-15667031D01*
X6851134Y-15667031D02*
X6860658Y-15638460D01*
X6860658Y-15638460D02*
X6870182Y-15590841D01*
X6870182Y-15590841D02*
X6870182Y-15552746D01*
X6870182Y-15552746D02*
X6860658Y-15505127D01*
X6860658Y-15505127D02*
X6851134Y-15476555D01*
X6851134Y-15476555D02*
X6841611Y-15457508D01*
X6841611Y-15457508D02*
X6822563Y-15428936D01*
X6822563Y-15428936D02*
X6813039Y-15419412D01*
D13*
X1792500Y-15765500D02*
X1792500Y-15875500D01*
X1737500Y-15820500D02*
X1847500Y-15820500D01*
D11*
X2213039Y-15911984D02*
X2098753Y-15911984D01*
X2155896Y-15911984D02*
X2155896Y-15711984D01*
X2155896Y-15711984D02*
X2136848Y-15740555D01*
X2136848Y-15740555D02*
X2117801Y-15759603D01*
X2117801Y-15759603D02*
X2098753Y-15769127D01*
X2298753Y-15892936D02*
X2308277Y-15902460D01*
X2308277Y-15902460D02*
X2298753Y-15911984D01*
X2298753Y-15911984D02*
X2289229Y-15902460D01*
X2289229Y-15902460D02*
X2298753Y-15892936D01*
X2298753Y-15892936D02*
X2298753Y-15911984D01*
X2498753Y-15911984D02*
X2384467Y-15911984D01*
X2441610Y-15911984D02*
X2441610Y-15711984D01*
X2441610Y-15711984D02*
X2422563Y-15740555D01*
X2422563Y-15740555D02*
X2403515Y-15759603D01*
X2403515Y-15759603D02*
X2384467Y-15769127D01*
X2622563Y-15711984D02*
X2641610Y-15711984D01*
X2641610Y-15711984D02*
X2660658Y-15721508D01*
X2660658Y-15721508D02*
X2670182Y-15731031D01*
X2670182Y-15731031D02*
X2679705Y-15750079D01*
X2679705Y-15750079D02*
X2689229Y-15788174D01*
X2689229Y-15788174D02*
X2689229Y-15835793D01*
X2689229Y-15835793D02*
X2679705Y-15873888D01*
X2679705Y-15873888D02*
X2670182Y-15892936D01*
X2670182Y-15892936D02*
X2660658Y-15902460D01*
X2660658Y-15902460D02*
X2641610Y-15911984D01*
X2641610Y-15911984D02*
X2622563Y-15911984D01*
X2622563Y-15911984D02*
X2603515Y-15902460D01*
X2603515Y-15902460D02*
X2593991Y-15892936D01*
X2593991Y-15892936D02*
X2584467Y-15873888D01*
X2584467Y-15873888D02*
X2574944Y-15835793D01*
X2574944Y-15835793D02*
X2574944Y-15788174D01*
X2574944Y-15788174D02*
X2584467Y-15750079D01*
X2584467Y-15750079D02*
X2593991Y-15731031D01*
X2593991Y-15731031D02*
X2603515Y-15721508D01*
X2603515Y-15721508D02*
X2622563Y-15711984D01*
X2813039Y-15711984D02*
X2832086Y-15711984D01*
X2832086Y-15711984D02*
X2851134Y-15721508D01*
X2851134Y-15721508D02*
X2860658Y-15731031D01*
X2860658Y-15731031D02*
X2870182Y-15750079D01*
X2870182Y-15750079D02*
X2879705Y-15788174D01*
X2879705Y-15788174D02*
X2879705Y-15835793D01*
X2879705Y-15835793D02*
X2870182Y-15873888D01*
X2870182Y-15873888D02*
X2860658Y-15892936D01*
X2860658Y-15892936D02*
X2851134Y-15902460D01*
X2851134Y-15902460D02*
X2832086Y-15911984D01*
X2832086Y-15911984D02*
X2813039Y-15911984D01*
X2813039Y-15911984D02*
X2793991Y-15902460D01*
X2793991Y-15902460D02*
X2784467Y-15892936D01*
X2784467Y-15892936D02*
X2774944Y-15873888D01*
X2774944Y-15873888D02*
X2765420Y-15835793D01*
X2765420Y-15835793D02*
X2765420Y-15788174D01*
X2765420Y-15788174D02*
X2774944Y-15750079D01*
X2774944Y-15750079D02*
X2784467Y-15731031D01*
X2784467Y-15731031D02*
X2793991Y-15721508D01*
X2793991Y-15721508D02*
X2813039Y-15711984D01*
X2965420Y-15911984D02*
X2965420Y-15778650D01*
X2965420Y-15797698D02*
X2974943Y-15788174D01*
X2974943Y-15788174D02*
X2993991Y-15778650D01*
X2993991Y-15778650D02*
X3022563Y-15778650D01*
X3022563Y-15778650D02*
X3041610Y-15788174D01*
X3041610Y-15788174D02*
X3051134Y-15807222D01*
X3051134Y-15807222D02*
X3051134Y-15911984D01*
X3051134Y-15807222D02*
X3060658Y-15788174D01*
X3060658Y-15788174D02*
X3079705Y-15778650D01*
X3079705Y-15778650D02*
X3108277Y-15778650D01*
X3108277Y-15778650D02*
X3127324Y-15788174D01*
X3127324Y-15788174D02*
X3136848Y-15807222D01*
X3136848Y-15807222D02*
X3136848Y-15911984D01*
X3232086Y-15911984D02*
X3232086Y-15778650D01*
X3232086Y-15797698D02*
X3241610Y-15788174D01*
X3241610Y-15788174D02*
X3260658Y-15778650D01*
X3260658Y-15778650D02*
X3289229Y-15778650D01*
X3289229Y-15778650D02*
X3308277Y-15788174D01*
X3308277Y-15788174D02*
X3317801Y-15807222D01*
X3317801Y-15807222D02*
X3317801Y-15911984D01*
X3317801Y-15807222D02*
X3327324Y-15788174D01*
X3327324Y-15788174D02*
X3346372Y-15778650D01*
X3346372Y-15778650D02*
X3374943Y-15778650D01*
X3374943Y-15778650D02*
X3393991Y-15788174D01*
X3393991Y-15788174D02*
X3403515Y-15807222D01*
X3403515Y-15807222D02*
X3403515Y-15911984D01*
X3793991Y-15702460D02*
X3622563Y-15959603D01*
X4051134Y-15711984D02*
X4070182Y-15711984D01*
X4070182Y-15711984D02*
X4089229Y-15721508D01*
X4089229Y-15721508D02*
X4098753Y-15731031D01*
X4098753Y-15731031D02*
X4108277Y-15750079D01*
X4108277Y-15750079D02*
X4117801Y-15788174D01*
X4117801Y-15788174D02*
X4117801Y-15835793D01*
X4117801Y-15835793D02*
X4108277Y-15873888D01*
X4108277Y-15873888D02*
X4098753Y-15892936D01*
X4098753Y-15892936D02*
X4089229Y-15902460D01*
X4089229Y-15902460D02*
X4070182Y-15911984D01*
X4070182Y-15911984D02*
X4051134Y-15911984D01*
X4051134Y-15911984D02*
X4032086Y-15902460D01*
X4032086Y-15902460D02*
X4022563Y-15892936D01*
X4022563Y-15892936D02*
X4013039Y-15873888D01*
X4013039Y-15873888D02*
X4003515Y-15835793D01*
X4003515Y-15835793D02*
X4003515Y-15788174D01*
X4003515Y-15788174D02*
X4013039Y-15750079D01*
X4013039Y-15750079D02*
X4022563Y-15731031D01*
X4022563Y-15731031D02*
X4032086Y-15721508D01*
X4032086Y-15721508D02*
X4051134Y-15711984D01*
X4203515Y-15892936D02*
X4213039Y-15902460D01*
X4213039Y-15902460D02*
X4203515Y-15911984D01*
X4203515Y-15911984D02*
X4193991Y-15902460D01*
X4193991Y-15902460D02*
X4203515Y-15892936D01*
X4203515Y-15892936D02*
X4203515Y-15911984D01*
X4336848Y-15711984D02*
X4355896Y-15711984D01*
X4355896Y-15711984D02*
X4374944Y-15721508D01*
X4374944Y-15721508D02*
X4384468Y-15731031D01*
X4384468Y-15731031D02*
X4393991Y-15750079D01*
X4393991Y-15750079D02*
X4403515Y-15788174D01*
X4403515Y-15788174D02*
X4403515Y-15835793D01*
X4403515Y-15835793D02*
X4393991Y-15873888D01*
X4393991Y-15873888D02*
X4384468Y-15892936D01*
X4384468Y-15892936D02*
X4374944Y-15902460D01*
X4374944Y-15902460D02*
X4355896Y-15911984D01*
X4355896Y-15911984D02*
X4336848Y-15911984D01*
X4336848Y-15911984D02*
X4317801Y-15902460D01*
X4317801Y-15902460D02*
X4308277Y-15892936D01*
X4308277Y-15892936D02*
X4298753Y-15873888D01*
X4298753Y-15873888D02*
X4289229Y-15835793D01*
X4289229Y-15835793D02*
X4289229Y-15788174D01*
X4289229Y-15788174D02*
X4298753Y-15750079D01*
X4298753Y-15750079D02*
X4308277Y-15731031D01*
X4308277Y-15731031D02*
X4317801Y-15721508D01*
X4317801Y-15721508D02*
X4336848Y-15711984D01*
X4574944Y-15778650D02*
X4574944Y-15911984D01*
X4527325Y-15702460D02*
X4479706Y-15845317D01*
X4479706Y-15845317D02*
X4603515Y-15845317D01*
X4660658Y-15711984D02*
X4784468Y-15711984D01*
X4784468Y-15711984D02*
X4717801Y-15788174D01*
X4717801Y-15788174D02*
X4746372Y-15788174D01*
X4746372Y-15788174D02*
X4765420Y-15797698D01*
X4765420Y-15797698D02*
X4774944Y-15807222D01*
X4774944Y-15807222D02*
X4784468Y-15826269D01*
X4784468Y-15826269D02*
X4784468Y-15873888D01*
X4784468Y-15873888D02*
X4774944Y-15892936D01*
X4774944Y-15892936D02*
X4765420Y-15902460D01*
X4765420Y-15902460D02*
X4746372Y-15911984D01*
X4746372Y-15911984D02*
X4689229Y-15911984D01*
X4689229Y-15911984D02*
X4670182Y-15902460D01*
X4670182Y-15902460D02*
X4660658Y-15892936D01*
X4851134Y-15711984D02*
X4974944Y-15711984D01*
X4974944Y-15711984D02*
X4908277Y-15788174D01*
X4908277Y-15788174D02*
X4936849Y-15788174D01*
X4936849Y-15788174D02*
X4955896Y-15797698D01*
X4955896Y-15797698D02*
X4965420Y-15807222D01*
X4965420Y-15807222D02*
X4974944Y-15826269D01*
X4974944Y-15826269D02*
X4974944Y-15873888D01*
X4974944Y-15873888D02*
X4965420Y-15892936D01*
X4965420Y-15892936D02*
X4955896Y-15902460D01*
X4955896Y-15902460D02*
X4936849Y-15911984D01*
X4936849Y-15911984D02*
X4879706Y-15911984D01*
X4879706Y-15911984D02*
X4860658Y-15902460D01*
X4860658Y-15902460D02*
X4851134Y-15892936D01*
X5051134Y-15711984D02*
X5051134Y-15750079D01*
X5127325Y-15711984D02*
X5127325Y-15750079D01*
X5422563Y-15988174D02*
X5413039Y-15978650D01*
X5413039Y-15978650D02*
X5393991Y-15950079D01*
X5393991Y-15950079D02*
X5384468Y-15931031D01*
X5384468Y-15931031D02*
X5374944Y-15902460D01*
X5374944Y-15902460D02*
X5365420Y-15854841D01*
X5365420Y-15854841D02*
X5365420Y-15816746D01*
X5365420Y-15816746D02*
X5374944Y-15769127D01*
X5374944Y-15769127D02*
X5384468Y-15740555D01*
X5384468Y-15740555D02*
X5393991Y-15721508D01*
X5393991Y-15721508D02*
X5413039Y-15692936D01*
X5413039Y-15692936D02*
X5422563Y-15683412D01*
X5479706Y-15711984D02*
X5603515Y-15711984D01*
X5603515Y-15711984D02*
X5536849Y-15788174D01*
X5536849Y-15788174D02*
X5565420Y-15788174D01*
X5565420Y-15788174D02*
X5584468Y-15797698D01*
X5584468Y-15797698D02*
X5593991Y-15807222D01*
X5593991Y-15807222D02*
X5603515Y-15826269D01*
X5603515Y-15826269D02*
X5603515Y-15873888D01*
X5603515Y-15873888D02*
X5593991Y-15892936D01*
X5593991Y-15892936D02*
X5584468Y-15902460D01*
X5584468Y-15902460D02*
X5565420Y-15911984D01*
X5565420Y-15911984D02*
X5508277Y-15911984D01*
X5508277Y-15911984D02*
X5489230Y-15902460D01*
X5489230Y-15902460D02*
X5479706Y-15892936D01*
X5841610Y-15911984D02*
X5841610Y-15711984D01*
X5927325Y-15911984D02*
X5927325Y-15807222D01*
X5927325Y-15807222D02*
X5917801Y-15788174D01*
X5917801Y-15788174D02*
X5898753Y-15778650D01*
X5898753Y-15778650D02*
X5870182Y-15778650D01*
X5870182Y-15778650D02*
X5851134Y-15788174D01*
X5851134Y-15788174D02*
X5841610Y-15797698D01*
X6051134Y-15911984D02*
X6032087Y-15902460D01*
X6032087Y-15902460D02*
X6022563Y-15892936D01*
X6022563Y-15892936D02*
X6013039Y-15873888D01*
X6013039Y-15873888D02*
X6013039Y-15816746D01*
X6013039Y-15816746D02*
X6022563Y-15797698D01*
X6022563Y-15797698D02*
X6032087Y-15788174D01*
X6032087Y-15788174D02*
X6051134Y-15778650D01*
X6051134Y-15778650D02*
X6079706Y-15778650D01*
X6079706Y-15778650D02*
X6098753Y-15788174D01*
X6098753Y-15788174D02*
X6108277Y-15797698D01*
X6108277Y-15797698D02*
X6117801Y-15816746D01*
X6117801Y-15816746D02*
X6117801Y-15873888D01*
X6117801Y-15873888D02*
X6108277Y-15892936D01*
X6108277Y-15892936D02*
X6098753Y-15902460D01*
X6098753Y-15902460D02*
X6079706Y-15911984D01*
X6079706Y-15911984D02*
X6051134Y-15911984D01*
X6232087Y-15911984D02*
X6213039Y-15902460D01*
X6213039Y-15902460D02*
X6203515Y-15883412D01*
X6203515Y-15883412D02*
X6203515Y-15711984D01*
X6384468Y-15902460D02*
X6365420Y-15911984D01*
X6365420Y-15911984D02*
X6327325Y-15911984D01*
X6327325Y-15911984D02*
X6308277Y-15902460D01*
X6308277Y-15902460D02*
X6298753Y-15883412D01*
X6298753Y-15883412D02*
X6298753Y-15807222D01*
X6298753Y-15807222D02*
X6308277Y-15788174D01*
X6308277Y-15788174D02*
X6327325Y-15778650D01*
X6327325Y-15778650D02*
X6365420Y-15778650D01*
X6365420Y-15778650D02*
X6384468Y-15788174D01*
X6384468Y-15788174D02*
X6393991Y-15807222D01*
X6393991Y-15807222D02*
X6393991Y-15826269D01*
X6393991Y-15826269D02*
X6298753Y-15845317D01*
X6470182Y-15902460D02*
X6489230Y-15911984D01*
X6489230Y-15911984D02*
X6527325Y-15911984D01*
X6527325Y-15911984D02*
X6546372Y-15902460D01*
X6546372Y-15902460D02*
X6555896Y-15883412D01*
X6555896Y-15883412D02*
X6555896Y-15873888D01*
X6555896Y-15873888D02*
X6546372Y-15854841D01*
X6546372Y-15854841D02*
X6527325Y-15845317D01*
X6527325Y-15845317D02*
X6498753Y-15845317D01*
X6498753Y-15845317D02*
X6479706Y-15835793D01*
X6479706Y-15835793D02*
X6470182Y-15816746D01*
X6470182Y-15816746D02*
X6470182Y-15807222D01*
X6470182Y-15807222D02*
X6479706Y-15788174D01*
X6479706Y-15788174D02*
X6498753Y-15778650D01*
X6498753Y-15778650D02*
X6527325Y-15778650D01*
X6527325Y-15778650D02*
X6546372Y-15788174D01*
X6622563Y-15988174D02*
X6632087Y-15978650D01*
X6632087Y-15978650D02*
X6651134Y-15950079D01*
X6651134Y-15950079D02*
X6660658Y-15931031D01*
X6660658Y-15931031D02*
X6670182Y-15902460D01*
X6670182Y-15902460D02*
X6679706Y-15854841D01*
X6679706Y-15854841D02*
X6679706Y-15816746D01*
X6679706Y-15816746D02*
X6670182Y-15769127D01*
X6670182Y-15769127D02*
X6660658Y-15740555D01*
X6660658Y-15740555D02*
X6651134Y-15721508D01*
X6651134Y-15721508D02*
X6632087Y-15692936D01*
X6632087Y-15692936D02*
X6622563Y-15683412D01*
D14*
X1821872Y-16146372D02*
X1821872Y-16022628D01*
X1698128Y-16022628D01*
X1698128Y-16146372D01*
X1821872Y-16146372D01*
D11*
X2213039Y-16175984D02*
X2098753Y-16175984D01*
X2155896Y-16175984D02*
X2155896Y-15975984D01*
X2155896Y-15975984D02*
X2136848Y-16004555D01*
X2136848Y-16004555D02*
X2117801Y-16023603D01*
X2117801Y-16023603D02*
X2098753Y-16033127D01*
X2298753Y-16156936D02*
X2308277Y-16166460D01*
X2308277Y-16166460D02*
X2298753Y-16175984D01*
X2298753Y-16175984D02*
X2289229Y-16166460D01*
X2289229Y-16166460D02*
X2298753Y-16156936D01*
X2298753Y-16156936D02*
X2298753Y-16175984D01*
X2374944Y-15975984D02*
X2508277Y-15975984D01*
X2508277Y-15975984D02*
X2422563Y-16175984D01*
X2679705Y-15975984D02*
X2584467Y-15975984D01*
X2584467Y-15975984D02*
X2574944Y-16071222D01*
X2574944Y-16071222D02*
X2584467Y-16061698D01*
X2584467Y-16061698D02*
X2603515Y-16052174D01*
X2603515Y-16052174D02*
X2651134Y-16052174D01*
X2651134Y-16052174D02*
X2670182Y-16061698D01*
X2670182Y-16061698D02*
X2679705Y-16071222D01*
X2679705Y-16071222D02*
X2689229Y-16090269D01*
X2689229Y-16090269D02*
X2689229Y-16137888D01*
X2689229Y-16137888D02*
X2679705Y-16156936D01*
X2679705Y-16156936D02*
X2670182Y-16166460D01*
X2670182Y-16166460D02*
X2651134Y-16175984D01*
X2651134Y-16175984D02*
X2603515Y-16175984D01*
X2603515Y-16175984D02*
X2584467Y-16166460D01*
X2584467Y-16166460D02*
X2574944Y-16156936D01*
X2813039Y-15975984D02*
X2832086Y-15975984D01*
X2832086Y-15975984D02*
X2851134Y-15985508D01*
X2851134Y-15985508D02*
X2860658Y-15995031D01*
X2860658Y-15995031D02*
X2870182Y-16014079D01*
X2870182Y-16014079D02*
X2879705Y-16052174D01*
X2879705Y-16052174D02*
X2879705Y-16099793D01*
X2879705Y-16099793D02*
X2870182Y-16137888D01*
X2870182Y-16137888D02*
X2860658Y-16156936D01*
X2860658Y-16156936D02*
X2851134Y-16166460D01*
X2851134Y-16166460D02*
X2832086Y-16175984D01*
X2832086Y-16175984D02*
X2813039Y-16175984D01*
X2813039Y-16175984D02*
X2793991Y-16166460D01*
X2793991Y-16166460D02*
X2784467Y-16156936D01*
X2784467Y-16156936D02*
X2774944Y-16137888D01*
X2774944Y-16137888D02*
X2765420Y-16099793D01*
X2765420Y-16099793D02*
X2765420Y-16052174D01*
X2765420Y-16052174D02*
X2774944Y-16014079D01*
X2774944Y-16014079D02*
X2784467Y-15995031D01*
X2784467Y-15995031D02*
X2793991Y-15985508D01*
X2793991Y-15985508D02*
X2813039Y-15975984D01*
X2965420Y-16175984D02*
X2965420Y-16042650D01*
X2965420Y-16061698D02*
X2974943Y-16052174D01*
X2974943Y-16052174D02*
X2993991Y-16042650D01*
X2993991Y-16042650D02*
X3022563Y-16042650D01*
X3022563Y-16042650D02*
X3041610Y-16052174D01*
X3041610Y-16052174D02*
X3051134Y-16071222D01*
X3051134Y-16071222D02*
X3051134Y-16175984D01*
X3051134Y-16071222D02*
X3060658Y-16052174D01*
X3060658Y-16052174D02*
X3079705Y-16042650D01*
X3079705Y-16042650D02*
X3108277Y-16042650D01*
X3108277Y-16042650D02*
X3127324Y-16052174D01*
X3127324Y-16052174D02*
X3136848Y-16071222D01*
X3136848Y-16071222D02*
X3136848Y-16175984D01*
X3232086Y-16175984D02*
X3232086Y-16042650D01*
X3232086Y-16061698D02*
X3241610Y-16052174D01*
X3241610Y-16052174D02*
X3260658Y-16042650D01*
X3260658Y-16042650D02*
X3289229Y-16042650D01*
X3289229Y-16042650D02*
X3308277Y-16052174D01*
X3308277Y-16052174D02*
X3317801Y-16071222D01*
X3317801Y-16071222D02*
X3317801Y-16175984D01*
X3317801Y-16071222D02*
X3327324Y-16052174D01*
X3327324Y-16052174D02*
X3346372Y-16042650D01*
X3346372Y-16042650D02*
X3374943Y-16042650D01*
X3374943Y-16042650D02*
X3393991Y-16052174D01*
X3393991Y-16052174D02*
X3403515Y-16071222D01*
X3403515Y-16071222D02*
X3403515Y-16175984D01*
X3793991Y-15966460D02*
X3622563Y-16223603D01*
X4051134Y-15975984D02*
X4070182Y-15975984D01*
X4070182Y-15975984D02*
X4089229Y-15985508D01*
X4089229Y-15985508D02*
X4098753Y-15995031D01*
X4098753Y-15995031D02*
X4108277Y-16014079D01*
X4108277Y-16014079D02*
X4117801Y-16052174D01*
X4117801Y-16052174D02*
X4117801Y-16099793D01*
X4117801Y-16099793D02*
X4108277Y-16137888D01*
X4108277Y-16137888D02*
X4098753Y-16156936D01*
X4098753Y-16156936D02*
X4089229Y-16166460D01*
X4089229Y-16166460D02*
X4070182Y-16175984D01*
X4070182Y-16175984D02*
X4051134Y-16175984D01*
X4051134Y-16175984D02*
X4032086Y-16166460D01*
X4032086Y-16166460D02*
X4022563Y-16156936D01*
X4022563Y-16156936D02*
X4013039Y-16137888D01*
X4013039Y-16137888D02*
X4003515Y-16099793D01*
X4003515Y-16099793D02*
X4003515Y-16052174D01*
X4003515Y-16052174D02*
X4013039Y-16014079D01*
X4013039Y-16014079D02*
X4022563Y-15995031D01*
X4022563Y-15995031D02*
X4032086Y-15985508D01*
X4032086Y-15985508D02*
X4051134Y-15975984D01*
X4203515Y-16156936D02*
X4213039Y-16166460D01*
X4213039Y-16166460D02*
X4203515Y-16175984D01*
X4203515Y-16175984D02*
X4193991Y-16166460D01*
X4193991Y-16166460D02*
X4203515Y-16156936D01*
X4203515Y-16156936D02*
X4203515Y-16175984D01*
X4336848Y-15975984D02*
X4355896Y-15975984D01*
X4355896Y-15975984D02*
X4374944Y-15985508D01*
X4374944Y-15985508D02*
X4384468Y-15995031D01*
X4384468Y-15995031D02*
X4393991Y-16014079D01*
X4393991Y-16014079D02*
X4403515Y-16052174D01*
X4403515Y-16052174D02*
X4403515Y-16099793D01*
X4403515Y-16099793D02*
X4393991Y-16137888D01*
X4393991Y-16137888D02*
X4384468Y-16156936D01*
X4384468Y-16156936D02*
X4374944Y-16166460D01*
X4374944Y-16166460D02*
X4355896Y-16175984D01*
X4355896Y-16175984D02*
X4336848Y-16175984D01*
X4336848Y-16175984D02*
X4317801Y-16166460D01*
X4317801Y-16166460D02*
X4308277Y-16156936D01*
X4308277Y-16156936D02*
X4298753Y-16137888D01*
X4298753Y-16137888D02*
X4289229Y-16099793D01*
X4289229Y-16099793D02*
X4289229Y-16052174D01*
X4289229Y-16052174D02*
X4298753Y-16014079D01*
X4298753Y-16014079D02*
X4308277Y-15995031D01*
X4308277Y-15995031D02*
X4317801Y-15985508D01*
X4317801Y-15985508D02*
X4336848Y-15975984D01*
X4574944Y-15975984D02*
X4536848Y-15975984D01*
X4536848Y-15975984D02*
X4517801Y-15985508D01*
X4517801Y-15985508D02*
X4508277Y-15995031D01*
X4508277Y-15995031D02*
X4489229Y-16023603D01*
X4489229Y-16023603D02*
X4479706Y-16061698D01*
X4479706Y-16061698D02*
X4479706Y-16137888D01*
X4479706Y-16137888D02*
X4489229Y-16156936D01*
X4489229Y-16156936D02*
X4498753Y-16166460D01*
X4498753Y-16166460D02*
X4517801Y-16175984D01*
X4517801Y-16175984D02*
X4555896Y-16175984D01*
X4555896Y-16175984D02*
X4574944Y-16166460D01*
X4574944Y-16166460D02*
X4584468Y-16156936D01*
X4584468Y-16156936D02*
X4593991Y-16137888D01*
X4593991Y-16137888D02*
X4593991Y-16090269D01*
X4593991Y-16090269D02*
X4584468Y-16071222D01*
X4584468Y-16071222D02*
X4574944Y-16061698D01*
X4574944Y-16061698D02*
X4555896Y-16052174D01*
X4555896Y-16052174D02*
X4517801Y-16052174D01*
X4517801Y-16052174D02*
X4498753Y-16061698D01*
X4498753Y-16061698D02*
X4489229Y-16071222D01*
X4489229Y-16071222D02*
X4479706Y-16090269D01*
X4708277Y-16061698D02*
X4689229Y-16052174D01*
X4689229Y-16052174D02*
X4679706Y-16042650D01*
X4679706Y-16042650D02*
X4670182Y-16023603D01*
X4670182Y-16023603D02*
X4670182Y-16014079D01*
X4670182Y-16014079D02*
X4679706Y-15995031D01*
X4679706Y-15995031D02*
X4689229Y-15985508D01*
X4689229Y-15985508D02*
X4708277Y-15975984D01*
X4708277Y-15975984D02*
X4746372Y-15975984D01*
X4746372Y-15975984D02*
X4765420Y-15985508D01*
X4765420Y-15985508D02*
X4774944Y-15995031D01*
X4774944Y-15995031D02*
X4784468Y-16014079D01*
X4784468Y-16014079D02*
X4784468Y-16023603D01*
X4784468Y-16023603D02*
X4774944Y-16042650D01*
X4774944Y-16042650D02*
X4765420Y-16052174D01*
X4765420Y-16052174D02*
X4746372Y-16061698D01*
X4746372Y-16061698D02*
X4708277Y-16061698D01*
X4708277Y-16061698D02*
X4689229Y-16071222D01*
X4689229Y-16071222D02*
X4679706Y-16080746D01*
X4679706Y-16080746D02*
X4670182Y-16099793D01*
X4670182Y-16099793D02*
X4670182Y-16137888D01*
X4670182Y-16137888D02*
X4679706Y-16156936D01*
X4679706Y-16156936D02*
X4689229Y-16166460D01*
X4689229Y-16166460D02*
X4708277Y-16175984D01*
X4708277Y-16175984D02*
X4746372Y-16175984D01*
X4746372Y-16175984D02*
X4765420Y-16166460D01*
X4765420Y-16166460D02*
X4774944Y-16156936D01*
X4774944Y-16156936D02*
X4784468Y-16137888D01*
X4784468Y-16137888D02*
X4784468Y-16099793D01*
X4784468Y-16099793D02*
X4774944Y-16080746D01*
X4774944Y-16080746D02*
X4765420Y-16071222D01*
X4765420Y-16071222D02*
X4746372Y-16061698D01*
X4879706Y-16175984D02*
X4917801Y-16175984D01*
X4917801Y-16175984D02*
X4936849Y-16166460D01*
X4936849Y-16166460D02*
X4946372Y-16156936D01*
X4946372Y-16156936D02*
X4965420Y-16128365D01*
X4965420Y-16128365D02*
X4974944Y-16090269D01*
X4974944Y-16090269D02*
X4974944Y-16014079D01*
X4974944Y-16014079D02*
X4965420Y-15995031D01*
X4965420Y-15995031D02*
X4955896Y-15985508D01*
X4955896Y-15985508D02*
X4936849Y-15975984D01*
X4936849Y-15975984D02*
X4898753Y-15975984D01*
X4898753Y-15975984D02*
X4879706Y-15985508D01*
X4879706Y-15985508D02*
X4870182Y-15995031D01*
X4870182Y-15995031D02*
X4860658Y-16014079D01*
X4860658Y-16014079D02*
X4860658Y-16061698D01*
X4860658Y-16061698D02*
X4870182Y-16080746D01*
X4870182Y-16080746D02*
X4879706Y-16090269D01*
X4879706Y-16090269D02*
X4898753Y-16099793D01*
X4898753Y-16099793D02*
X4936849Y-16099793D01*
X4936849Y-16099793D02*
X4955896Y-16090269D01*
X4955896Y-16090269D02*
X4965420Y-16080746D01*
X4965420Y-16080746D02*
X4974944Y-16061698D01*
X5051134Y-15975984D02*
X5051134Y-16014079D01*
X5127325Y-15975984D02*
X5127325Y-16014079D01*
X5422563Y-16252174D02*
X5413039Y-16242650D01*
X5413039Y-16242650D02*
X5393991Y-16214079D01*
X5393991Y-16214079D02*
X5384468Y-16195031D01*
X5384468Y-16195031D02*
X5374944Y-16166460D01*
X5374944Y-16166460D02*
X5365420Y-16118841D01*
X5365420Y-16118841D02*
X5365420Y-16080746D01*
X5365420Y-16080746D02*
X5374944Y-16033127D01*
X5374944Y-16033127D02*
X5384468Y-16004555D01*
X5384468Y-16004555D02*
X5393991Y-15985508D01*
X5393991Y-15985508D02*
X5413039Y-15956936D01*
X5413039Y-15956936D02*
X5422563Y-15947412D01*
X5489230Y-15995031D02*
X5498753Y-15985508D01*
X5498753Y-15985508D02*
X5517801Y-15975984D01*
X5517801Y-15975984D02*
X5565420Y-15975984D01*
X5565420Y-15975984D02*
X5584468Y-15985508D01*
X5584468Y-15985508D02*
X5593991Y-15995031D01*
X5593991Y-15995031D02*
X5603515Y-16014079D01*
X5603515Y-16014079D02*
X5603515Y-16033127D01*
X5603515Y-16033127D02*
X5593991Y-16061698D01*
X5593991Y-16061698D02*
X5479706Y-16175984D01*
X5479706Y-16175984D02*
X5603515Y-16175984D01*
X5841610Y-16175984D02*
X5841610Y-15975984D01*
X5927325Y-16175984D02*
X5927325Y-16071222D01*
X5927325Y-16071222D02*
X5917801Y-16052174D01*
X5917801Y-16052174D02*
X5898753Y-16042650D01*
X5898753Y-16042650D02*
X5870182Y-16042650D01*
X5870182Y-16042650D02*
X5851134Y-16052174D01*
X5851134Y-16052174D02*
X5841610Y-16061698D01*
X6051134Y-16175984D02*
X6032087Y-16166460D01*
X6032087Y-16166460D02*
X6022563Y-16156936D01*
X6022563Y-16156936D02*
X6013039Y-16137888D01*
X6013039Y-16137888D02*
X6013039Y-16080746D01*
X6013039Y-16080746D02*
X6022563Y-16061698D01*
X6022563Y-16061698D02*
X6032087Y-16052174D01*
X6032087Y-16052174D02*
X6051134Y-16042650D01*
X6051134Y-16042650D02*
X6079706Y-16042650D01*
X6079706Y-16042650D02*
X6098753Y-16052174D01*
X6098753Y-16052174D02*
X6108277Y-16061698D01*
X6108277Y-16061698D02*
X6117801Y-16080746D01*
X6117801Y-16080746D02*
X6117801Y-16137888D01*
X6117801Y-16137888D02*
X6108277Y-16156936D01*
X6108277Y-16156936D02*
X6098753Y-16166460D01*
X6098753Y-16166460D02*
X6079706Y-16175984D01*
X6079706Y-16175984D02*
X6051134Y-16175984D01*
X6232087Y-16175984D02*
X6213039Y-16166460D01*
X6213039Y-16166460D02*
X6203515Y-16147412D01*
X6203515Y-16147412D02*
X6203515Y-15975984D01*
X6384468Y-16166460D02*
X6365420Y-16175984D01*
X6365420Y-16175984D02*
X6327325Y-16175984D01*
X6327325Y-16175984D02*
X6308277Y-16166460D01*
X6308277Y-16166460D02*
X6298753Y-16147412D01*
X6298753Y-16147412D02*
X6298753Y-16071222D01*
X6298753Y-16071222D02*
X6308277Y-16052174D01*
X6308277Y-16052174D02*
X6327325Y-16042650D01*
X6327325Y-16042650D02*
X6365420Y-16042650D01*
X6365420Y-16042650D02*
X6384468Y-16052174D01*
X6384468Y-16052174D02*
X6393991Y-16071222D01*
X6393991Y-16071222D02*
X6393991Y-16090269D01*
X6393991Y-16090269D02*
X6298753Y-16109317D01*
X6470182Y-16166460D02*
X6489230Y-16175984D01*
X6489230Y-16175984D02*
X6527325Y-16175984D01*
X6527325Y-16175984D02*
X6546372Y-16166460D01*
X6546372Y-16166460D02*
X6555896Y-16147412D01*
X6555896Y-16147412D02*
X6555896Y-16137888D01*
X6555896Y-16137888D02*
X6546372Y-16118841D01*
X6546372Y-16118841D02*
X6527325Y-16109317D01*
X6527325Y-16109317D02*
X6498753Y-16109317D01*
X6498753Y-16109317D02*
X6479706Y-16099793D01*
X6479706Y-16099793D02*
X6470182Y-16080746D01*
X6470182Y-16080746D02*
X6470182Y-16071222D01*
X6470182Y-16071222D02*
X6479706Y-16052174D01*
X6479706Y-16052174D02*
X6498753Y-16042650D01*
X6498753Y-16042650D02*
X6527325Y-16042650D01*
X6527325Y-16042650D02*
X6546372Y-16052174D01*
X6622563Y-16252174D02*
X6632087Y-16242650D01*
X6632087Y-16242650D02*
X6651134Y-16214079D01*
X6651134Y-16214079D02*
X6660658Y-16195031D01*
X6660658Y-16195031D02*
X6670182Y-16166460D01*
X6670182Y-16166460D02*
X6679706Y-16118841D01*
X6679706Y-16118841D02*
X6679706Y-16080746D01*
X6679706Y-16080746D02*
X6670182Y-16033127D01*
X6670182Y-16033127D02*
X6660658Y-16004555D01*
X6660658Y-16004555D02*
X6651134Y-15985508D01*
X6651134Y-15985508D02*
X6632087Y-15956936D01*
X6632087Y-15956936D02*
X6622563Y-15947412D01*
M02*
