%TF.GenerationSoftware,KiCad,Pcbnew,8.0.8*%
%TF.CreationDate,2026-01-13T22:52:37+05:30*%
%TF.ProjectId,pre audio amplifier,70726520-6175-4646-996f-20616d706c69,rev?*%
%TF.SameCoordinates,Original*%
%TF.FileFunction,Soldermask,Top*%
%TF.FilePolarity,Negative*%
%FSLAX46Y46*%
G04 Gerber Fmt 4.6, Leading zero omitted, Abs format (unit mm)*
G04 Created by KiCad (PCBNEW 8.0.8) date 2026-01-13 22:52:37*
%MOMM*%
%LPD*%
G01*
G04 APERTURE LIST*
G04 Aperture macros list*
%AMRoundRect*
0 Rectangle with rounded corners*
0 $1 Rounding radius*
0 $2 $3 $4 $5 $6 $7 $8 $9 X,Y pos of 4 corners*
0 Add a 4 corners polygon primitive as box body*
4,1,4,$2,$3,$4,$5,$6,$7,$8,$9,$2,$3,0*
0 Add four circle primitives for the rounded corners*
1,1,$1+$1,$2,$3*
1,1,$1+$1,$4,$5*
1,1,$1+$1,$6,$7*
1,1,$1+$1,$8,$9*
0 Add four rect primitives between the rounded corners*
20,1,$1+$1,$2,$3,$4,$5,0*
20,1,$1+$1,$4,$5,$6,$7,0*
20,1,$1+$1,$6,$7,$8,$9,0*
20,1,$1+$1,$8,$9,$2,$3,0*%
G04 Aperture macros list end*
%ADD10R,2.200000X1.600000*%
%ADD11R,2.400000X1.500000*%
%ADD12RoundRect,0.250000X-0.262500X-0.450000X0.262500X-0.450000X0.262500X0.450000X-0.262500X0.450000X0*%
%ADD13RoundRect,0.250000X0.262500X0.450000X-0.262500X0.450000X-0.262500X-0.450000X0.262500X-0.450000X0*%
%ADD14R,3.000000X3.000000*%
%ADD15C,3.000000*%
%ADD16R,1.050000X1.500000*%
%ADD17O,1.050000X1.500000*%
%ADD18RoundRect,0.250000X0.450000X-0.262500X0.450000X0.262500X-0.450000X0.262500X-0.450000X-0.262500X0*%
%ADD19RoundRect,0.250000X-0.450000X0.262500X-0.450000X-0.262500X0.450000X-0.262500X0.450000X0.262500X0*%
%ADD20R,1.600000X1.600000*%
%ADD21C,1.600000*%
%ADD22R,2.000000X1.905000*%
%ADD23O,2.000000X1.905000*%
%ADD24R,1.600000X2.200000*%
%ADD25R,1.500000X2.000000*%
%ADD26O,1.600000X1.600000*%
G04 APERTURE END LIST*
D10*
%TO.C,C6*%
X97000000Y-84500000D03*
X100000000Y-84500000D03*
%TD*%
%TO.C,C8*%
X178000000Y-110500000D03*
X175000000Y-110500000D03*
%TD*%
D11*
%TO.C,L1*%
X189500000Y-108750000D03*
X189500000Y-114250000D03*
%TD*%
D10*
%TO.C,C3*%
X61000000Y-103000000D03*
X58000000Y-103000000D03*
%TD*%
D12*
%TO.C,R16*%
X165587500Y-97000000D03*
X167412500Y-97000000D03*
%TD*%
D10*
%TO.C,C5*%
X56000000Y-130500000D03*
X59000000Y-130500000D03*
%TD*%
D13*
%TO.C,R7*%
X57500000Y-122500000D03*
X55675000Y-122500000D03*
%TD*%
D10*
%TO.C,C1*%
X27000000Y-79500000D03*
X30000000Y-79500000D03*
%TD*%
%TO.C,C4*%
X67000000Y-130500000D03*
X70000000Y-130500000D03*
%TD*%
D14*
%TO.C,J1*%
X26592500Y-92250000D03*
D15*
X30472500Y-92250000D03*
%TD*%
D16*
%TO.C,Q2*%
X158040000Y-97140000D03*
D17*
X156770000Y-97140000D03*
X155500000Y-97140000D03*
%TD*%
D12*
%TO.C,R9*%
X98500000Y-103500000D03*
X100325000Y-103500000D03*
%TD*%
D18*
%TO.C,R17*%
X175000000Y-99325000D03*
X175000000Y-97500000D03*
%TD*%
D13*
%TO.C,R8*%
X156412500Y-124500000D03*
X154587500Y-124500000D03*
%TD*%
D12*
%TO.C,R13*%
X137000000Y-124500000D03*
X138825000Y-124500000D03*
%TD*%
D19*
%TO.C,R11*%
X99500000Y-95175000D03*
X99500000Y-97000000D03*
%TD*%
%TO.C,R5*%
X74000000Y-84087500D03*
X74000000Y-85912500D03*
%TD*%
D20*
%TO.C,U3*%
X45890000Y-57690000D03*
D21*
X43350000Y-57690000D03*
X30650000Y-57690000D03*
X28110000Y-57690000D03*
X28110000Y-65310000D03*
X30650000Y-65310000D03*
X43350000Y-65310000D03*
X45890000Y-65310000D03*
%TD*%
D20*
%TO.C,U5*%
X111195000Y-95110000D03*
D21*
X111195000Y-97650000D03*
X111195000Y-110350000D03*
X111195000Y-112890000D03*
X118815000Y-112890000D03*
X118815000Y-110350000D03*
X118815000Y-97650000D03*
X118815000Y-95110000D03*
%TD*%
D12*
%TO.C,R15*%
X138500000Y-97500000D03*
X140325000Y-97500000D03*
%TD*%
%TO.C,R6*%
X36087500Y-107000000D03*
X37912500Y-107000000D03*
%TD*%
D13*
%TO.C,R1*%
X61825000Y-79500000D03*
X60000000Y-79500000D03*
%TD*%
D16*
%TO.C,Q4*%
X155230000Y-114860000D03*
D17*
X156500000Y-114860000D03*
X157770000Y-114860000D03*
%TD*%
D12*
%TO.C,R10*%
X114500000Y-84500000D03*
X116325000Y-84500000D03*
%TD*%
D22*
%TO.C,Q3*%
X189055000Y-96960000D03*
D23*
X189055000Y-99500000D03*
X189055000Y-102040000D03*
%TD*%
D24*
%TO.C,C7*%
X130000000Y-110000000D03*
X130000000Y-107000000D03*
%TD*%
D12*
%TO.C,R4*%
X33587500Y-79500000D03*
X35412500Y-79500000D03*
%TD*%
D25*
%TO.C,LS1*%
X155100000Y-138800000D03*
X165900000Y-138800000D03*
%TD*%
D12*
%TO.C,R3*%
X33587500Y-85000000D03*
X35412500Y-85000000D03*
%TD*%
D18*
%TO.C,R12*%
X129500000Y-97412500D03*
X129500000Y-95587500D03*
%TD*%
D20*
%TO.C,U4*%
X62390000Y-84690000D03*
D21*
X59850000Y-84690000D03*
X47150000Y-84690000D03*
X44610000Y-84690000D03*
X44610000Y-92310000D03*
X47150000Y-92310000D03*
X59850000Y-92310000D03*
X62390000Y-92310000D03*
%TD*%
D20*
%TO.C,U2*%
X60300000Y-111200000D03*
D26*
X57760000Y-111200000D03*
X55220000Y-111200000D03*
X52680000Y-111200000D03*
X52680000Y-118820000D03*
X55220000Y-118820000D03*
X57760000Y-118820000D03*
X60300000Y-118820000D03*
%TD*%
M02*
