%TF.GenerationSoftware,KiCad,Pcbnew,8.0.8*%
%TF.CreationDate,2026-01-13T22:52:37+05:30*%
%TF.ProjectId,pre audio amplifier,70726520-6175-4646-996f-20616d706c69,rev?*%
%TF.SameCoordinates,Original*%
%TF.FileFunction,Legend,Top*%
%TF.FilePolarity,Positive*%
%FSLAX46Y46*%
G04 Gerber Fmt 4.6, Leading zero omitted, Abs format (unit mm)*
G04 Created by KiCad (PCBNEW 8.0.8) date 2026-01-13 22:52:37*
%MOMM*%
%LPD*%
G01*
G04 APERTURE LIST*
%ADD10C,0.150000*%
%ADD11C,0.120000*%
G04 APERTURE END LIST*
D10*
X98333333Y-82159580D02*
X98285714Y-82207200D01*
X98285714Y-82207200D02*
X98142857Y-82254819D01*
X98142857Y-82254819D02*
X98047619Y-82254819D01*
X98047619Y-82254819D02*
X97904762Y-82207200D01*
X97904762Y-82207200D02*
X97809524Y-82111961D01*
X97809524Y-82111961D02*
X97761905Y-82016723D01*
X97761905Y-82016723D02*
X97714286Y-81826247D01*
X97714286Y-81826247D02*
X97714286Y-81683390D01*
X97714286Y-81683390D02*
X97761905Y-81492914D01*
X97761905Y-81492914D02*
X97809524Y-81397676D01*
X97809524Y-81397676D02*
X97904762Y-81302438D01*
X97904762Y-81302438D02*
X98047619Y-81254819D01*
X98047619Y-81254819D02*
X98142857Y-81254819D01*
X98142857Y-81254819D02*
X98285714Y-81302438D01*
X98285714Y-81302438D02*
X98333333Y-81350057D01*
X99190476Y-81254819D02*
X99000000Y-81254819D01*
X99000000Y-81254819D02*
X98904762Y-81302438D01*
X98904762Y-81302438D02*
X98857143Y-81350057D01*
X98857143Y-81350057D02*
X98761905Y-81492914D01*
X98761905Y-81492914D02*
X98714286Y-81683390D01*
X98714286Y-81683390D02*
X98714286Y-82064342D01*
X98714286Y-82064342D02*
X98761905Y-82159580D01*
X98761905Y-82159580D02*
X98809524Y-82207200D01*
X98809524Y-82207200D02*
X98904762Y-82254819D01*
X98904762Y-82254819D02*
X99095238Y-82254819D01*
X99095238Y-82254819D02*
X99190476Y-82207200D01*
X99190476Y-82207200D02*
X99238095Y-82159580D01*
X99238095Y-82159580D02*
X99285714Y-82064342D01*
X99285714Y-82064342D02*
X99285714Y-81826247D01*
X99285714Y-81826247D02*
X99238095Y-81731009D01*
X99238095Y-81731009D02*
X99190476Y-81683390D01*
X99190476Y-81683390D02*
X99095238Y-81635771D01*
X99095238Y-81635771D02*
X98904762Y-81635771D01*
X98904762Y-81635771D02*
X98809524Y-81683390D01*
X98809524Y-81683390D02*
X98761905Y-81731009D01*
X98761905Y-81731009D02*
X98714286Y-81826247D01*
X176333333Y-113559580D02*
X176285714Y-113607200D01*
X176285714Y-113607200D02*
X176142857Y-113654819D01*
X176142857Y-113654819D02*
X176047619Y-113654819D01*
X176047619Y-113654819D02*
X175904762Y-113607200D01*
X175904762Y-113607200D02*
X175809524Y-113511961D01*
X175809524Y-113511961D02*
X175761905Y-113416723D01*
X175761905Y-113416723D02*
X175714286Y-113226247D01*
X175714286Y-113226247D02*
X175714286Y-113083390D01*
X175714286Y-113083390D02*
X175761905Y-112892914D01*
X175761905Y-112892914D02*
X175809524Y-112797676D01*
X175809524Y-112797676D02*
X175904762Y-112702438D01*
X175904762Y-112702438D02*
X176047619Y-112654819D01*
X176047619Y-112654819D02*
X176142857Y-112654819D01*
X176142857Y-112654819D02*
X176285714Y-112702438D01*
X176285714Y-112702438D02*
X176333333Y-112750057D01*
X176904762Y-113083390D02*
X176809524Y-113035771D01*
X176809524Y-113035771D02*
X176761905Y-112988152D01*
X176761905Y-112988152D02*
X176714286Y-112892914D01*
X176714286Y-112892914D02*
X176714286Y-112845295D01*
X176714286Y-112845295D02*
X176761905Y-112750057D01*
X176761905Y-112750057D02*
X176809524Y-112702438D01*
X176809524Y-112702438D02*
X176904762Y-112654819D01*
X176904762Y-112654819D02*
X177095238Y-112654819D01*
X177095238Y-112654819D02*
X177190476Y-112702438D01*
X177190476Y-112702438D02*
X177238095Y-112750057D01*
X177238095Y-112750057D02*
X177285714Y-112845295D01*
X177285714Y-112845295D02*
X177285714Y-112892914D01*
X177285714Y-112892914D02*
X177238095Y-112988152D01*
X177238095Y-112988152D02*
X177190476Y-113035771D01*
X177190476Y-113035771D02*
X177095238Y-113083390D01*
X177095238Y-113083390D02*
X176904762Y-113083390D01*
X176904762Y-113083390D02*
X176809524Y-113131009D01*
X176809524Y-113131009D02*
X176761905Y-113178628D01*
X176761905Y-113178628D02*
X176714286Y-113273866D01*
X176714286Y-113273866D02*
X176714286Y-113464342D01*
X176714286Y-113464342D02*
X176761905Y-113559580D01*
X176761905Y-113559580D02*
X176809524Y-113607200D01*
X176809524Y-113607200D02*
X176904762Y-113654819D01*
X176904762Y-113654819D02*
X177095238Y-113654819D01*
X177095238Y-113654819D02*
X177190476Y-113607200D01*
X177190476Y-113607200D02*
X177238095Y-113559580D01*
X177238095Y-113559580D02*
X177285714Y-113464342D01*
X177285714Y-113464342D02*
X177285714Y-113273866D01*
X177285714Y-113273866D02*
X177238095Y-113178628D01*
X177238095Y-113178628D02*
X177190476Y-113131009D01*
X177190476Y-113131009D02*
X177095238Y-113083390D01*
X194404819Y-111666666D02*
X194404819Y-112142856D01*
X194404819Y-112142856D02*
X193404819Y-112142856D01*
X194404819Y-110809523D02*
X194404819Y-111380951D01*
X194404819Y-111095237D02*
X193404819Y-111095237D01*
X193404819Y-111095237D02*
X193547676Y-111190475D01*
X193547676Y-111190475D02*
X193642914Y-111285713D01*
X193642914Y-111285713D02*
X193690533Y-111380951D01*
X59333333Y-106059580D02*
X59285714Y-106107200D01*
X59285714Y-106107200D02*
X59142857Y-106154819D01*
X59142857Y-106154819D02*
X59047619Y-106154819D01*
X59047619Y-106154819D02*
X58904762Y-106107200D01*
X58904762Y-106107200D02*
X58809524Y-106011961D01*
X58809524Y-106011961D02*
X58761905Y-105916723D01*
X58761905Y-105916723D02*
X58714286Y-105726247D01*
X58714286Y-105726247D02*
X58714286Y-105583390D01*
X58714286Y-105583390D02*
X58761905Y-105392914D01*
X58761905Y-105392914D02*
X58809524Y-105297676D01*
X58809524Y-105297676D02*
X58904762Y-105202438D01*
X58904762Y-105202438D02*
X59047619Y-105154819D01*
X59047619Y-105154819D02*
X59142857Y-105154819D01*
X59142857Y-105154819D02*
X59285714Y-105202438D01*
X59285714Y-105202438D02*
X59333333Y-105250057D01*
X59666667Y-105154819D02*
X60285714Y-105154819D01*
X60285714Y-105154819D02*
X59952381Y-105535771D01*
X59952381Y-105535771D02*
X60095238Y-105535771D01*
X60095238Y-105535771D02*
X60190476Y-105583390D01*
X60190476Y-105583390D02*
X60238095Y-105631009D01*
X60238095Y-105631009D02*
X60285714Y-105726247D01*
X60285714Y-105726247D02*
X60285714Y-105964342D01*
X60285714Y-105964342D02*
X60238095Y-106059580D01*
X60238095Y-106059580D02*
X60190476Y-106107200D01*
X60190476Y-106107200D02*
X60095238Y-106154819D01*
X60095238Y-106154819D02*
X59809524Y-106154819D01*
X59809524Y-106154819D02*
X59714286Y-106107200D01*
X59714286Y-106107200D02*
X59666667Y-106059580D01*
X165857142Y-95804819D02*
X165523809Y-95328628D01*
X165285714Y-95804819D02*
X165285714Y-94804819D01*
X165285714Y-94804819D02*
X165666666Y-94804819D01*
X165666666Y-94804819D02*
X165761904Y-94852438D01*
X165761904Y-94852438D02*
X165809523Y-94900057D01*
X165809523Y-94900057D02*
X165857142Y-94995295D01*
X165857142Y-94995295D02*
X165857142Y-95138152D01*
X165857142Y-95138152D02*
X165809523Y-95233390D01*
X165809523Y-95233390D02*
X165761904Y-95281009D01*
X165761904Y-95281009D02*
X165666666Y-95328628D01*
X165666666Y-95328628D02*
X165285714Y-95328628D01*
X166809523Y-95804819D02*
X166238095Y-95804819D01*
X166523809Y-95804819D02*
X166523809Y-94804819D01*
X166523809Y-94804819D02*
X166428571Y-94947676D01*
X166428571Y-94947676D02*
X166333333Y-95042914D01*
X166333333Y-95042914D02*
X166238095Y-95090533D01*
X167666666Y-94804819D02*
X167476190Y-94804819D01*
X167476190Y-94804819D02*
X167380952Y-94852438D01*
X167380952Y-94852438D02*
X167333333Y-94900057D01*
X167333333Y-94900057D02*
X167238095Y-95042914D01*
X167238095Y-95042914D02*
X167190476Y-95233390D01*
X167190476Y-95233390D02*
X167190476Y-95614342D01*
X167190476Y-95614342D02*
X167238095Y-95709580D01*
X167238095Y-95709580D02*
X167285714Y-95757200D01*
X167285714Y-95757200D02*
X167380952Y-95804819D01*
X167380952Y-95804819D02*
X167571428Y-95804819D01*
X167571428Y-95804819D02*
X167666666Y-95757200D01*
X167666666Y-95757200D02*
X167714285Y-95709580D01*
X167714285Y-95709580D02*
X167761904Y-95614342D01*
X167761904Y-95614342D02*
X167761904Y-95376247D01*
X167761904Y-95376247D02*
X167714285Y-95281009D01*
X167714285Y-95281009D02*
X167666666Y-95233390D01*
X167666666Y-95233390D02*
X167571428Y-95185771D01*
X167571428Y-95185771D02*
X167380952Y-95185771D01*
X167380952Y-95185771D02*
X167285714Y-95233390D01*
X167285714Y-95233390D02*
X167238095Y-95281009D01*
X167238095Y-95281009D02*
X167190476Y-95376247D01*
X57333333Y-128159580D02*
X57285714Y-128207200D01*
X57285714Y-128207200D02*
X57142857Y-128254819D01*
X57142857Y-128254819D02*
X57047619Y-128254819D01*
X57047619Y-128254819D02*
X56904762Y-128207200D01*
X56904762Y-128207200D02*
X56809524Y-128111961D01*
X56809524Y-128111961D02*
X56761905Y-128016723D01*
X56761905Y-128016723D02*
X56714286Y-127826247D01*
X56714286Y-127826247D02*
X56714286Y-127683390D01*
X56714286Y-127683390D02*
X56761905Y-127492914D01*
X56761905Y-127492914D02*
X56809524Y-127397676D01*
X56809524Y-127397676D02*
X56904762Y-127302438D01*
X56904762Y-127302438D02*
X57047619Y-127254819D01*
X57047619Y-127254819D02*
X57142857Y-127254819D01*
X57142857Y-127254819D02*
X57285714Y-127302438D01*
X57285714Y-127302438D02*
X57333333Y-127350057D01*
X58238095Y-127254819D02*
X57761905Y-127254819D01*
X57761905Y-127254819D02*
X57714286Y-127731009D01*
X57714286Y-127731009D02*
X57761905Y-127683390D01*
X57761905Y-127683390D02*
X57857143Y-127635771D01*
X57857143Y-127635771D02*
X58095238Y-127635771D01*
X58095238Y-127635771D02*
X58190476Y-127683390D01*
X58190476Y-127683390D02*
X58238095Y-127731009D01*
X58238095Y-127731009D02*
X58285714Y-127826247D01*
X58285714Y-127826247D02*
X58285714Y-128064342D01*
X58285714Y-128064342D02*
X58238095Y-128159580D01*
X58238095Y-128159580D02*
X58190476Y-128207200D01*
X58190476Y-128207200D02*
X58095238Y-128254819D01*
X58095238Y-128254819D02*
X57857143Y-128254819D01*
X57857143Y-128254819D02*
X57761905Y-128207200D01*
X57761905Y-128207200D02*
X57714286Y-128159580D01*
X56420833Y-124604819D02*
X56087500Y-124128628D01*
X55849405Y-124604819D02*
X55849405Y-123604819D01*
X55849405Y-123604819D02*
X56230357Y-123604819D01*
X56230357Y-123604819D02*
X56325595Y-123652438D01*
X56325595Y-123652438D02*
X56373214Y-123700057D01*
X56373214Y-123700057D02*
X56420833Y-123795295D01*
X56420833Y-123795295D02*
X56420833Y-123938152D01*
X56420833Y-123938152D02*
X56373214Y-124033390D01*
X56373214Y-124033390D02*
X56325595Y-124081009D01*
X56325595Y-124081009D02*
X56230357Y-124128628D01*
X56230357Y-124128628D02*
X55849405Y-124128628D01*
X56754167Y-123604819D02*
X57420833Y-123604819D01*
X57420833Y-123604819D02*
X56992262Y-124604819D01*
X28333333Y-77159580D02*
X28285714Y-77207200D01*
X28285714Y-77207200D02*
X28142857Y-77254819D01*
X28142857Y-77254819D02*
X28047619Y-77254819D01*
X28047619Y-77254819D02*
X27904762Y-77207200D01*
X27904762Y-77207200D02*
X27809524Y-77111961D01*
X27809524Y-77111961D02*
X27761905Y-77016723D01*
X27761905Y-77016723D02*
X27714286Y-76826247D01*
X27714286Y-76826247D02*
X27714286Y-76683390D01*
X27714286Y-76683390D02*
X27761905Y-76492914D01*
X27761905Y-76492914D02*
X27809524Y-76397676D01*
X27809524Y-76397676D02*
X27904762Y-76302438D01*
X27904762Y-76302438D02*
X28047619Y-76254819D01*
X28047619Y-76254819D02*
X28142857Y-76254819D01*
X28142857Y-76254819D02*
X28285714Y-76302438D01*
X28285714Y-76302438D02*
X28333333Y-76350057D01*
X29285714Y-77254819D02*
X28714286Y-77254819D01*
X29000000Y-77254819D02*
X29000000Y-76254819D01*
X29000000Y-76254819D02*
X28904762Y-76397676D01*
X28904762Y-76397676D02*
X28809524Y-76492914D01*
X28809524Y-76492914D02*
X28714286Y-76540533D01*
X68333333Y-128159580D02*
X68285714Y-128207200D01*
X68285714Y-128207200D02*
X68142857Y-128254819D01*
X68142857Y-128254819D02*
X68047619Y-128254819D01*
X68047619Y-128254819D02*
X67904762Y-128207200D01*
X67904762Y-128207200D02*
X67809524Y-128111961D01*
X67809524Y-128111961D02*
X67761905Y-128016723D01*
X67761905Y-128016723D02*
X67714286Y-127826247D01*
X67714286Y-127826247D02*
X67714286Y-127683390D01*
X67714286Y-127683390D02*
X67761905Y-127492914D01*
X67761905Y-127492914D02*
X67809524Y-127397676D01*
X67809524Y-127397676D02*
X67904762Y-127302438D01*
X67904762Y-127302438D02*
X68047619Y-127254819D01*
X68047619Y-127254819D02*
X68142857Y-127254819D01*
X68142857Y-127254819D02*
X68285714Y-127302438D01*
X68285714Y-127302438D02*
X68333333Y-127350057D01*
X69190476Y-127588152D02*
X69190476Y-128254819D01*
X68952381Y-127207200D02*
X68714286Y-127921485D01*
X68714286Y-127921485D02*
X69333333Y-127921485D01*
X28169166Y-86624819D02*
X28169166Y-87339104D01*
X28169166Y-87339104D02*
X28121547Y-87481961D01*
X28121547Y-87481961D02*
X28026309Y-87577200D01*
X28026309Y-87577200D02*
X27883452Y-87624819D01*
X27883452Y-87624819D02*
X27788214Y-87624819D01*
X29169166Y-87624819D02*
X28597738Y-87624819D01*
X28883452Y-87624819D02*
X28883452Y-86624819D01*
X28883452Y-86624819D02*
X28788214Y-86767676D01*
X28788214Y-86767676D02*
X28692976Y-86862914D01*
X28692976Y-86862914D02*
X28597738Y-86910533D01*
X156674761Y-101250057D02*
X156579523Y-101202438D01*
X156579523Y-101202438D02*
X156484285Y-101107200D01*
X156484285Y-101107200D02*
X156341428Y-100964342D01*
X156341428Y-100964342D02*
X156246190Y-100916723D01*
X156246190Y-100916723D02*
X156150952Y-100916723D01*
X156198571Y-101154819D02*
X156103333Y-101107200D01*
X156103333Y-101107200D02*
X156008095Y-101011961D01*
X156008095Y-101011961D02*
X155960476Y-100821485D01*
X155960476Y-100821485D02*
X155960476Y-100488152D01*
X155960476Y-100488152D02*
X156008095Y-100297676D01*
X156008095Y-100297676D02*
X156103333Y-100202438D01*
X156103333Y-100202438D02*
X156198571Y-100154819D01*
X156198571Y-100154819D02*
X156389047Y-100154819D01*
X156389047Y-100154819D02*
X156484285Y-100202438D01*
X156484285Y-100202438D02*
X156579523Y-100297676D01*
X156579523Y-100297676D02*
X156627142Y-100488152D01*
X156627142Y-100488152D02*
X156627142Y-100821485D01*
X156627142Y-100821485D02*
X156579523Y-101011961D01*
X156579523Y-101011961D02*
X156484285Y-101107200D01*
X156484285Y-101107200D02*
X156389047Y-101154819D01*
X156389047Y-101154819D02*
X156198571Y-101154819D01*
X157008095Y-100250057D02*
X157055714Y-100202438D01*
X157055714Y-100202438D02*
X157150952Y-100154819D01*
X157150952Y-100154819D02*
X157389047Y-100154819D01*
X157389047Y-100154819D02*
X157484285Y-100202438D01*
X157484285Y-100202438D02*
X157531904Y-100250057D01*
X157531904Y-100250057D02*
X157579523Y-100345295D01*
X157579523Y-100345295D02*
X157579523Y-100440533D01*
X157579523Y-100440533D02*
X157531904Y-100583390D01*
X157531904Y-100583390D02*
X156960476Y-101154819D01*
X156960476Y-101154819D02*
X157579523Y-101154819D01*
X99245833Y-102304819D02*
X98912500Y-101828628D01*
X98674405Y-102304819D02*
X98674405Y-101304819D01*
X98674405Y-101304819D02*
X99055357Y-101304819D01*
X99055357Y-101304819D02*
X99150595Y-101352438D01*
X99150595Y-101352438D02*
X99198214Y-101400057D01*
X99198214Y-101400057D02*
X99245833Y-101495295D01*
X99245833Y-101495295D02*
X99245833Y-101638152D01*
X99245833Y-101638152D02*
X99198214Y-101733390D01*
X99198214Y-101733390D02*
X99150595Y-101781009D01*
X99150595Y-101781009D02*
X99055357Y-101828628D01*
X99055357Y-101828628D02*
X98674405Y-101828628D01*
X99722024Y-102304819D02*
X99912500Y-102304819D01*
X99912500Y-102304819D02*
X100007738Y-102257200D01*
X100007738Y-102257200D02*
X100055357Y-102209580D01*
X100055357Y-102209580D02*
X100150595Y-102066723D01*
X100150595Y-102066723D02*
X100198214Y-101876247D01*
X100198214Y-101876247D02*
X100198214Y-101495295D01*
X100198214Y-101495295D02*
X100150595Y-101400057D01*
X100150595Y-101400057D02*
X100102976Y-101352438D01*
X100102976Y-101352438D02*
X100007738Y-101304819D01*
X100007738Y-101304819D02*
X99817262Y-101304819D01*
X99817262Y-101304819D02*
X99722024Y-101352438D01*
X99722024Y-101352438D02*
X99674405Y-101400057D01*
X99674405Y-101400057D02*
X99626786Y-101495295D01*
X99626786Y-101495295D02*
X99626786Y-101733390D01*
X99626786Y-101733390D02*
X99674405Y-101828628D01*
X99674405Y-101828628D02*
X99722024Y-101876247D01*
X99722024Y-101876247D02*
X99817262Y-101923866D01*
X99817262Y-101923866D02*
X100007738Y-101923866D01*
X100007738Y-101923866D02*
X100102976Y-101876247D01*
X100102976Y-101876247D02*
X100150595Y-101828628D01*
X100150595Y-101828628D02*
X100198214Y-101733390D01*
X173804819Y-99055357D02*
X173328628Y-99388690D01*
X173804819Y-99626785D02*
X172804819Y-99626785D01*
X172804819Y-99626785D02*
X172804819Y-99245833D01*
X172804819Y-99245833D02*
X172852438Y-99150595D01*
X172852438Y-99150595D02*
X172900057Y-99102976D01*
X172900057Y-99102976D02*
X172995295Y-99055357D01*
X172995295Y-99055357D02*
X173138152Y-99055357D01*
X173138152Y-99055357D02*
X173233390Y-99102976D01*
X173233390Y-99102976D02*
X173281009Y-99150595D01*
X173281009Y-99150595D02*
X173328628Y-99245833D01*
X173328628Y-99245833D02*
X173328628Y-99626785D01*
X173804819Y-98102976D02*
X173804819Y-98674404D01*
X173804819Y-98388690D02*
X172804819Y-98388690D01*
X172804819Y-98388690D02*
X172947676Y-98483928D01*
X172947676Y-98483928D02*
X173042914Y-98579166D01*
X173042914Y-98579166D02*
X173090533Y-98674404D01*
X172804819Y-97769642D02*
X172804819Y-97102976D01*
X172804819Y-97102976D02*
X173804819Y-97531547D01*
X155333333Y-126604819D02*
X155000000Y-126128628D01*
X154761905Y-126604819D02*
X154761905Y-125604819D01*
X154761905Y-125604819D02*
X155142857Y-125604819D01*
X155142857Y-125604819D02*
X155238095Y-125652438D01*
X155238095Y-125652438D02*
X155285714Y-125700057D01*
X155285714Y-125700057D02*
X155333333Y-125795295D01*
X155333333Y-125795295D02*
X155333333Y-125938152D01*
X155333333Y-125938152D02*
X155285714Y-126033390D01*
X155285714Y-126033390D02*
X155238095Y-126081009D01*
X155238095Y-126081009D02*
X155142857Y-126128628D01*
X155142857Y-126128628D02*
X154761905Y-126128628D01*
X155904762Y-126033390D02*
X155809524Y-125985771D01*
X155809524Y-125985771D02*
X155761905Y-125938152D01*
X155761905Y-125938152D02*
X155714286Y-125842914D01*
X155714286Y-125842914D02*
X155714286Y-125795295D01*
X155714286Y-125795295D02*
X155761905Y-125700057D01*
X155761905Y-125700057D02*
X155809524Y-125652438D01*
X155809524Y-125652438D02*
X155904762Y-125604819D01*
X155904762Y-125604819D02*
X156095238Y-125604819D01*
X156095238Y-125604819D02*
X156190476Y-125652438D01*
X156190476Y-125652438D02*
X156238095Y-125700057D01*
X156238095Y-125700057D02*
X156285714Y-125795295D01*
X156285714Y-125795295D02*
X156285714Y-125842914D01*
X156285714Y-125842914D02*
X156238095Y-125938152D01*
X156238095Y-125938152D02*
X156190476Y-125985771D01*
X156190476Y-125985771D02*
X156095238Y-126033390D01*
X156095238Y-126033390D02*
X155904762Y-126033390D01*
X155904762Y-126033390D02*
X155809524Y-126081009D01*
X155809524Y-126081009D02*
X155761905Y-126128628D01*
X155761905Y-126128628D02*
X155714286Y-126223866D01*
X155714286Y-126223866D02*
X155714286Y-126414342D01*
X155714286Y-126414342D02*
X155761905Y-126509580D01*
X155761905Y-126509580D02*
X155809524Y-126557200D01*
X155809524Y-126557200D02*
X155904762Y-126604819D01*
X155904762Y-126604819D02*
X156095238Y-126604819D01*
X156095238Y-126604819D02*
X156190476Y-126557200D01*
X156190476Y-126557200D02*
X156238095Y-126509580D01*
X156238095Y-126509580D02*
X156285714Y-126414342D01*
X156285714Y-126414342D02*
X156285714Y-126223866D01*
X156285714Y-126223866D02*
X156238095Y-126128628D01*
X156238095Y-126128628D02*
X156190476Y-126081009D01*
X156190476Y-126081009D02*
X156095238Y-126033390D01*
X137269642Y-123304819D02*
X136936309Y-122828628D01*
X136698214Y-123304819D02*
X136698214Y-122304819D01*
X136698214Y-122304819D02*
X137079166Y-122304819D01*
X137079166Y-122304819D02*
X137174404Y-122352438D01*
X137174404Y-122352438D02*
X137222023Y-122400057D01*
X137222023Y-122400057D02*
X137269642Y-122495295D01*
X137269642Y-122495295D02*
X137269642Y-122638152D01*
X137269642Y-122638152D02*
X137222023Y-122733390D01*
X137222023Y-122733390D02*
X137174404Y-122781009D01*
X137174404Y-122781009D02*
X137079166Y-122828628D01*
X137079166Y-122828628D02*
X136698214Y-122828628D01*
X138222023Y-123304819D02*
X137650595Y-123304819D01*
X137936309Y-123304819D02*
X137936309Y-122304819D01*
X137936309Y-122304819D02*
X137841071Y-122447676D01*
X137841071Y-122447676D02*
X137745833Y-122542914D01*
X137745833Y-122542914D02*
X137650595Y-122590533D01*
X138555357Y-122304819D02*
X139174404Y-122304819D01*
X139174404Y-122304819D02*
X138841071Y-122685771D01*
X138841071Y-122685771D02*
X138983928Y-122685771D01*
X138983928Y-122685771D02*
X139079166Y-122733390D01*
X139079166Y-122733390D02*
X139126785Y-122781009D01*
X139126785Y-122781009D02*
X139174404Y-122876247D01*
X139174404Y-122876247D02*
X139174404Y-123114342D01*
X139174404Y-123114342D02*
X139126785Y-123209580D01*
X139126785Y-123209580D02*
X139079166Y-123257200D01*
X139079166Y-123257200D02*
X138983928Y-123304819D01*
X138983928Y-123304819D02*
X138698214Y-123304819D01*
X138698214Y-123304819D02*
X138602976Y-123257200D01*
X138602976Y-123257200D02*
X138555357Y-123209580D01*
X101604819Y-96730357D02*
X101128628Y-97063690D01*
X101604819Y-97301785D02*
X100604819Y-97301785D01*
X100604819Y-97301785D02*
X100604819Y-96920833D01*
X100604819Y-96920833D02*
X100652438Y-96825595D01*
X100652438Y-96825595D02*
X100700057Y-96777976D01*
X100700057Y-96777976D02*
X100795295Y-96730357D01*
X100795295Y-96730357D02*
X100938152Y-96730357D01*
X100938152Y-96730357D02*
X101033390Y-96777976D01*
X101033390Y-96777976D02*
X101081009Y-96825595D01*
X101081009Y-96825595D02*
X101128628Y-96920833D01*
X101128628Y-96920833D02*
X101128628Y-97301785D01*
X101604819Y-95777976D02*
X101604819Y-96349404D01*
X101604819Y-96063690D02*
X100604819Y-96063690D01*
X100604819Y-96063690D02*
X100747676Y-96158928D01*
X100747676Y-96158928D02*
X100842914Y-96254166D01*
X100842914Y-96254166D02*
X100890533Y-96349404D01*
X101604819Y-94825595D02*
X101604819Y-95397023D01*
X101604819Y-95111309D02*
X100604819Y-95111309D01*
X100604819Y-95111309D02*
X100747676Y-95206547D01*
X100747676Y-95206547D02*
X100842914Y-95301785D01*
X100842914Y-95301785D02*
X100890533Y-95397023D01*
X76104819Y-85166666D02*
X75628628Y-85499999D01*
X76104819Y-85738094D02*
X75104819Y-85738094D01*
X75104819Y-85738094D02*
X75104819Y-85357142D01*
X75104819Y-85357142D02*
X75152438Y-85261904D01*
X75152438Y-85261904D02*
X75200057Y-85214285D01*
X75200057Y-85214285D02*
X75295295Y-85166666D01*
X75295295Y-85166666D02*
X75438152Y-85166666D01*
X75438152Y-85166666D02*
X75533390Y-85214285D01*
X75533390Y-85214285D02*
X75581009Y-85261904D01*
X75581009Y-85261904D02*
X75628628Y-85357142D01*
X75628628Y-85357142D02*
X75628628Y-85738094D01*
X75104819Y-84261904D02*
X75104819Y-84738094D01*
X75104819Y-84738094D02*
X75581009Y-84785713D01*
X75581009Y-84785713D02*
X75533390Y-84738094D01*
X75533390Y-84738094D02*
X75485771Y-84642856D01*
X75485771Y-84642856D02*
X75485771Y-84404761D01*
X75485771Y-84404761D02*
X75533390Y-84309523D01*
X75533390Y-84309523D02*
X75581009Y-84261904D01*
X75581009Y-84261904D02*
X75676247Y-84214285D01*
X75676247Y-84214285D02*
X75914342Y-84214285D01*
X75914342Y-84214285D02*
X76009580Y-84261904D01*
X76009580Y-84261904D02*
X76057200Y-84309523D01*
X76057200Y-84309523D02*
X76104819Y-84404761D01*
X76104819Y-84404761D02*
X76104819Y-84642856D01*
X76104819Y-84642856D02*
X76057200Y-84738094D01*
X76057200Y-84738094D02*
X76009580Y-84785713D01*
X47674819Y-62261904D02*
X48484342Y-62261904D01*
X48484342Y-62261904D02*
X48579580Y-62214285D01*
X48579580Y-62214285D02*
X48627200Y-62166666D01*
X48627200Y-62166666D02*
X48674819Y-62071428D01*
X48674819Y-62071428D02*
X48674819Y-61880952D01*
X48674819Y-61880952D02*
X48627200Y-61785714D01*
X48627200Y-61785714D02*
X48579580Y-61738095D01*
X48579580Y-61738095D02*
X48484342Y-61690476D01*
X48484342Y-61690476D02*
X47674819Y-61690476D01*
X47674819Y-61309523D02*
X47674819Y-60690476D01*
X47674819Y-60690476D02*
X48055771Y-61023809D01*
X48055771Y-61023809D02*
X48055771Y-60880952D01*
X48055771Y-60880952D02*
X48103390Y-60785714D01*
X48103390Y-60785714D02*
X48151009Y-60738095D01*
X48151009Y-60738095D02*
X48246247Y-60690476D01*
X48246247Y-60690476D02*
X48484342Y-60690476D01*
X48484342Y-60690476D02*
X48579580Y-60738095D01*
X48579580Y-60738095D02*
X48627200Y-60785714D01*
X48627200Y-60785714D02*
X48674819Y-60880952D01*
X48674819Y-60880952D02*
X48674819Y-61166666D01*
X48674819Y-61166666D02*
X48627200Y-61261904D01*
X48627200Y-61261904D02*
X48579580Y-61309523D01*
X114243095Y-92234819D02*
X114243095Y-93044342D01*
X114243095Y-93044342D02*
X114290714Y-93139580D01*
X114290714Y-93139580D02*
X114338333Y-93187200D01*
X114338333Y-93187200D02*
X114433571Y-93234819D01*
X114433571Y-93234819D02*
X114624047Y-93234819D01*
X114624047Y-93234819D02*
X114719285Y-93187200D01*
X114719285Y-93187200D02*
X114766904Y-93139580D01*
X114766904Y-93139580D02*
X114814523Y-93044342D01*
X114814523Y-93044342D02*
X114814523Y-92234819D01*
X115766904Y-92234819D02*
X115290714Y-92234819D01*
X115290714Y-92234819D02*
X115243095Y-92711009D01*
X115243095Y-92711009D02*
X115290714Y-92663390D01*
X115290714Y-92663390D02*
X115385952Y-92615771D01*
X115385952Y-92615771D02*
X115624047Y-92615771D01*
X115624047Y-92615771D02*
X115719285Y-92663390D01*
X115719285Y-92663390D02*
X115766904Y-92711009D01*
X115766904Y-92711009D02*
X115814523Y-92806247D01*
X115814523Y-92806247D02*
X115814523Y-93044342D01*
X115814523Y-93044342D02*
X115766904Y-93139580D01*
X115766904Y-93139580D02*
X115719285Y-93187200D01*
X115719285Y-93187200D02*
X115624047Y-93234819D01*
X115624047Y-93234819D02*
X115385952Y-93234819D01*
X115385952Y-93234819D02*
X115290714Y-93187200D01*
X115290714Y-93187200D02*
X115243095Y-93139580D01*
X138769642Y-96304819D02*
X138436309Y-95828628D01*
X138198214Y-96304819D02*
X138198214Y-95304819D01*
X138198214Y-95304819D02*
X138579166Y-95304819D01*
X138579166Y-95304819D02*
X138674404Y-95352438D01*
X138674404Y-95352438D02*
X138722023Y-95400057D01*
X138722023Y-95400057D02*
X138769642Y-95495295D01*
X138769642Y-95495295D02*
X138769642Y-95638152D01*
X138769642Y-95638152D02*
X138722023Y-95733390D01*
X138722023Y-95733390D02*
X138674404Y-95781009D01*
X138674404Y-95781009D02*
X138579166Y-95828628D01*
X138579166Y-95828628D02*
X138198214Y-95828628D01*
X139722023Y-96304819D02*
X139150595Y-96304819D01*
X139436309Y-96304819D02*
X139436309Y-95304819D01*
X139436309Y-95304819D02*
X139341071Y-95447676D01*
X139341071Y-95447676D02*
X139245833Y-95542914D01*
X139245833Y-95542914D02*
X139150595Y-95590533D01*
X140626785Y-95304819D02*
X140150595Y-95304819D01*
X140150595Y-95304819D02*
X140102976Y-95781009D01*
X140102976Y-95781009D02*
X140150595Y-95733390D01*
X140150595Y-95733390D02*
X140245833Y-95685771D01*
X140245833Y-95685771D02*
X140483928Y-95685771D01*
X140483928Y-95685771D02*
X140579166Y-95733390D01*
X140579166Y-95733390D02*
X140626785Y-95781009D01*
X140626785Y-95781009D02*
X140674404Y-95876247D01*
X140674404Y-95876247D02*
X140674404Y-96114342D01*
X140674404Y-96114342D02*
X140626785Y-96209580D01*
X140626785Y-96209580D02*
X140579166Y-96257200D01*
X140579166Y-96257200D02*
X140483928Y-96304819D01*
X140483928Y-96304819D02*
X140245833Y-96304819D01*
X140245833Y-96304819D02*
X140150595Y-96257200D01*
X140150595Y-96257200D02*
X140102976Y-96209580D01*
X36833333Y-105804819D02*
X36500000Y-105328628D01*
X36261905Y-105804819D02*
X36261905Y-104804819D01*
X36261905Y-104804819D02*
X36642857Y-104804819D01*
X36642857Y-104804819D02*
X36738095Y-104852438D01*
X36738095Y-104852438D02*
X36785714Y-104900057D01*
X36785714Y-104900057D02*
X36833333Y-104995295D01*
X36833333Y-104995295D02*
X36833333Y-105138152D01*
X36833333Y-105138152D02*
X36785714Y-105233390D01*
X36785714Y-105233390D02*
X36738095Y-105281009D01*
X36738095Y-105281009D02*
X36642857Y-105328628D01*
X36642857Y-105328628D02*
X36261905Y-105328628D01*
X37690476Y-104804819D02*
X37500000Y-104804819D01*
X37500000Y-104804819D02*
X37404762Y-104852438D01*
X37404762Y-104852438D02*
X37357143Y-104900057D01*
X37357143Y-104900057D02*
X37261905Y-105042914D01*
X37261905Y-105042914D02*
X37214286Y-105233390D01*
X37214286Y-105233390D02*
X37214286Y-105614342D01*
X37214286Y-105614342D02*
X37261905Y-105709580D01*
X37261905Y-105709580D02*
X37309524Y-105757200D01*
X37309524Y-105757200D02*
X37404762Y-105804819D01*
X37404762Y-105804819D02*
X37595238Y-105804819D01*
X37595238Y-105804819D02*
X37690476Y-105757200D01*
X37690476Y-105757200D02*
X37738095Y-105709580D01*
X37738095Y-105709580D02*
X37785714Y-105614342D01*
X37785714Y-105614342D02*
X37785714Y-105376247D01*
X37785714Y-105376247D02*
X37738095Y-105281009D01*
X37738095Y-105281009D02*
X37690476Y-105233390D01*
X37690476Y-105233390D02*
X37595238Y-105185771D01*
X37595238Y-105185771D02*
X37404762Y-105185771D01*
X37404762Y-105185771D02*
X37309524Y-105233390D01*
X37309524Y-105233390D02*
X37261905Y-105281009D01*
X37261905Y-105281009D02*
X37214286Y-105376247D01*
X60745833Y-81604819D02*
X60412500Y-81128628D01*
X60174405Y-81604819D02*
X60174405Y-80604819D01*
X60174405Y-80604819D02*
X60555357Y-80604819D01*
X60555357Y-80604819D02*
X60650595Y-80652438D01*
X60650595Y-80652438D02*
X60698214Y-80700057D01*
X60698214Y-80700057D02*
X60745833Y-80795295D01*
X60745833Y-80795295D02*
X60745833Y-80938152D01*
X60745833Y-80938152D02*
X60698214Y-81033390D01*
X60698214Y-81033390D02*
X60650595Y-81081009D01*
X60650595Y-81081009D02*
X60555357Y-81128628D01*
X60555357Y-81128628D02*
X60174405Y-81128628D01*
X61698214Y-81604819D02*
X61126786Y-81604819D01*
X61412500Y-81604819D02*
X61412500Y-80604819D01*
X61412500Y-80604819D02*
X61317262Y-80747676D01*
X61317262Y-80747676D02*
X61222024Y-80842914D01*
X61222024Y-80842914D02*
X61126786Y-80890533D01*
X156404761Y-111850057D02*
X156309523Y-111802438D01*
X156309523Y-111802438D02*
X156214285Y-111707200D01*
X156214285Y-111707200D02*
X156071428Y-111564342D01*
X156071428Y-111564342D02*
X155976190Y-111516723D01*
X155976190Y-111516723D02*
X155880952Y-111516723D01*
X155928571Y-111754819D02*
X155833333Y-111707200D01*
X155833333Y-111707200D02*
X155738095Y-111611961D01*
X155738095Y-111611961D02*
X155690476Y-111421485D01*
X155690476Y-111421485D02*
X155690476Y-111088152D01*
X155690476Y-111088152D02*
X155738095Y-110897676D01*
X155738095Y-110897676D02*
X155833333Y-110802438D01*
X155833333Y-110802438D02*
X155928571Y-110754819D01*
X155928571Y-110754819D02*
X156119047Y-110754819D01*
X156119047Y-110754819D02*
X156214285Y-110802438D01*
X156214285Y-110802438D02*
X156309523Y-110897676D01*
X156309523Y-110897676D02*
X156357142Y-111088152D01*
X156357142Y-111088152D02*
X156357142Y-111421485D01*
X156357142Y-111421485D02*
X156309523Y-111611961D01*
X156309523Y-111611961D02*
X156214285Y-111707200D01*
X156214285Y-111707200D02*
X156119047Y-111754819D01*
X156119047Y-111754819D02*
X155928571Y-111754819D01*
X157214285Y-111088152D02*
X157214285Y-111754819D01*
X156976190Y-110707200D02*
X156738095Y-111421485D01*
X156738095Y-111421485D02*
X157357142Y-111421485D01*
X114769642Y-83304819D02*
X114436309Y-82828628D01*
X114198214Y-83304819D02*
X114198214Y-82304819D01*
X114198214Y-82304819D02*
X114579166Y-82304819D01*
X114579166Y-82304819D02*
X114674404Y-82352438D01*
X114674404Y-82352438D02*
X114722023Y-82400057D01*
X114722023Y-82400057D02*
X114769642Y-82495295D01*
X114769642Y-82495295D02*
X114769642Y-82638152D01*
X114769642Y-82638152D02*
X114722023Y-82733390D01*
X114722023Y-82733390D02*
X114674404Y-82781009D01*
X114674404Y-82781009D02*
X114579166Y-82828628D01*
X114579166Y-82828628D02*
X114198214Y-82828628D01*
X115722023Y-83304819D02*
X115150595Y-83304819D01*
X115436309Y-83304819D02*
X115436309Y-82304819D01*
X115436309Y-82304819D02*
X115341071Y-82447676D01*
X115341071Y-82447676D02*
X115245833Y-82542914D01*
X115245833Y-82542914D02*
X115150595Y-82590533D01*
X116341071Y-82304819D02*
X116436309Y-82304819D01*
X116436309Y-82304819D02*
X116531547Y-82352438D01*
X116531547Y-82352438D02*
X116579166Y-82400057D01*
X116579166Y-82400057D02*
X116626785Y-82495295D01*
X116626785Y-82495295D02*
X116674404Y-82685771D01*
X116674404Y-82685771D02*
X116674404Y-82923866D01*
X116674404Y-82923866D02*
X116626785Y-83114342D01*
X116626785Y-83114342D02*
X116579166Y-83209580D01*
X116579166Y-83209580D02*
X116531547Y-83257200D01*
X116531547Y-83257200D02*
X116436309Y-83304819D01*
X116436309Y-83304819D02*
X116341071Y-83304819D01*
X116341071Y-83304819D02*
X116245833Y-83257200D01*
X116245833Y-83257200D02*
X116198214Y-83209580D01*
X116198214Y-83209580D02*
X116150595Y-83114342D01*
X116150595Y-83114342D02*
X116102976Y-82923866D01*
X116102976Y-82923866D02*
X116102976Y-82685771D01*
X116102976Y-82685771D02*
X116150595Y-82495295D01*
X116150595Y-82495295D02*
X116198214Y-82400057D01*
X116198214Y-82400057D02*
X116245833Y-82352438D01*
X116245833Y-82352438D02*
X116341071Y-82304819D01*
X193875057Y-99595238D02*
X193827438Y-99690476D01*
X193827438Y-99690476D02*
X193732200Y-99785714D01*
X193732200Y-99785714D02*
X193589342Y-99928571D01*
X193589342Y-99928571D02*
X193541723Y-100023809D01*
X193541723Y-100023809D02*
X193541723Y-100119047D01*
X193779819Y-100071428D02*
X193732200Y-100166666D01*
X193732200Y-100166666D02*
X193636961Y-100261904D01*
X193636961Y-100261904D02*
X193446485Y-100309523D01*
X193446485Y-100309523D02*
X193113152Y-100309523D01*
X193113152Y-100309523D02*
X192922676Y-100261904D01*
X192922676Y-100261904D02*
X192827438Y-100166666D01*
X192827438Y-100166666D02*
X192779819Y-100071428D01*
X192779819Y-100071428D02*
X192779819Y-99880952D01*
X192779819Y-99880952D02*
X192827438Y-99785714D01*
X192827438Y-99785714D02*
X192922676Y-99690476D01*
X192922676Y-99690476D02*
X193113152Y-99642857D01*
X193113152Y-99642857D02*
X193446485Y-99642857D01*
X193446485Y-99642857D02*
X193636961Y-99690476D01*
X193636961Y-99690476D02*
X193732200Y-99785714D01*
X193732200Y-99785714D02*
X193779819Y-99880952D01*
X193779819Y-99880952D02*
X193779819Y-100071428D01*
X192779819Y-99309523D02*
X192779819Y-98690476D01*
X192779819Y-98690476D02*
X193160771Y-99023809D01*
X193160771Y-99023809D02*
X193160771Y-98880952D01*
X193160771Y-98880952D02*
X193208390Y-98785714D01*
X193208390Y-98785714D02*
X193256009Y-98738095D01*
X193256009Y-98738095D02*
X193351247Y-98690476D01*
X193351247Y-98690476D02*
X193589342Y-98690476D01*
X193589342Y-98690476D02*
X193684580Y-98738095D01*
X193684580Y-98738095D02*
X193732200Y-98785714D01*
X193732200Y-98785714D02*
X193779819Y-98880952D01*
X193779819Y-98880952D02*
X193779819Y-99166666D01*
X193779819Y-99166666D02*
X193732200Y-99261904D01*
X193732200Y-99261904D02*
X193684580Y-99309523D01*
X127659580Y-108666666D02*
X127707200Y-108714285D01*
X127707200Y-108714285D02*
X127754819Y-108857142D01*
X127754819Y-108857142D02*
X127754819Y-108952380D01*
X127754819Y-108952380D02*
X127707200Y-109095237D01*
X127707200Y-109095237D02*
X127611961Y-109190475D01*
X127611961Y-109190475D02*
X127516723Y-109238094D01*
X127516723Y-109238094D02*
X127326247Y-109285713D01*
X127326247Y-109285713D02*
X127183390Y-109285713D01*
X127183390Y-109285713D02*
X126992914Y-109238094D01*
X126992914Y-109238094D02*
X126897676Y-109190475D01*
X126897676Y-109190475D02*
X126802438Y-109095237D01*
X126802438Y-109095237D02*
X126754819Y-108952380D01*
X126754819Y-108952380D02*
X126754819Y-108857142D01*
X126754819Y-108857142D02*
X126802438Y-108714285D01*
X126802438Y-108714285D02*
X126850057Y-108666666D01*
X126754819Y-108333332D02*
X126754819Y-107666666D01*
X126754819Y-107666666D02*
X127754819Y-108095237D01*
X34333333Y-78304819D02*
X34000000Y-77828628D01*
X33761905Y-78304819D02*
X33761905Y-77304819D01*
X33761905Y-77304819D02*
X34142857Y-77304819D01*
X34142857Y-77304819D02*
X34238095Y-77352438D01*
X34238095Y-77352438D02*
X34285714Y-77400057D01*
X34285714Y-77400057D02*
X34333333Y-77495295D01*
X34333333Y-77495295D02*
X34333333Y-77638152D01*
X34333333Y-77638152D02*
X34285714Y-77733390D01*
X34285714Y-77733390D02*
X34238095Y-77781009D01*
X34238095Y-77781009D02*
X34142857Y-77828628D01*
X34142857Y-77828628D02*
X33761905Y-77828628D01*
X35190476Y-77638152D02*
X35190476Y-78304819D01*
X34952381Y-77257200D02*
X34714286Y-77971485D01*
X34714286Y-77971485D02*
X35333333Y-77971485D01*
X159857142Y-132954819D02*
X159380952Y-132954819D01*
X159380952Y-132954819D02*
X159380952Y-131954819D01*
X160142857Y-132907200D02*
X160285714Y-132954819D01*
X160285714Y-132954819D02*
X160523809Y-132954819D01*
X160523809Y-132954819D02*
X160619047Y-132907200D01*
X160619047Y-132907200D02*
X160666666Y-132859580D01*
X160666666Y-132859580D02*
X160714285Y-132764342D01*
X160714285Y-132764342D02*
X160714285Y-132669104D01*
X160714285Y-132669104D02*
X160666666Y-132573866D01*
X160666666Y-132573866D02*
X160619047Y-132526247D01*
X160619047Y-132526247D02*
X160523809Y-132478628D01*
X160523809Y-132478628D02*
X160333333Y-132431009D01*
X160333333Y-132431009D02*
X160238095Y-132383390D01*
X160238095Y-132383390D02*
X160190476Y-132335771D01*
X160190476Y-132335771D02*
X160142857Y-132240533D01*
X160142857Y-132240533D02*
X160142857Y-132145295D01*
X160142857Y-132145295D02*
X160190476Y-132050057D01*
X160190476Y-132050057D02*
X160238095Y-132002438D01*
X160238095Y-132002438D02*
X160333333Y-131954819D01*
X160333333Y-131954819D02*
X160571428Y-131954819D01*
X160571428Y-131954819D02*
X160714285Y-132002438D01*
X161666666Y-132954819D02*
X161095238Y-132954819D01*
X161380952Y-132954819D02*
X161380952Y-131954819D01*
X161380952Y-131954819D02*
X161285714Y-132097676D01*
X161285714Y-132097676D02*
X161190476Y-132192914D01*
X161190476Y-132192914D02*
X161095238Y-132240533D01*
X34071428Y-83307257D02*
X33738095Y-82831066D01*
X33500000Y-83307257D02*
X33500000Y-82307257D01*
X33500000Y-82307257D02*
X33880952Y-82307257D01*
X33880952Y-82307257D02*
X33976190Y-82354876D01*
X33976190Y-82354876D02*
X34023809Y-82402495D01*
X34023809Y-82402495D02*
X34071428Y-82497733D01*
X34071428Y-82497733D02*
X34071428Y-82640590D01*
X34071428Y-82640590D02*
X34023809Y-82735828D01*
X34023809Y-82735828D02*
X33976190Y-82783447D01*
X33976190Y-82783447D02*
X33880952Y-82831066D01*
X33880952Y-82831066D02*
X33500000Y-82831066D01*
X34404762Y-82307257D02*
X35023809Y-82307257D01*
X35023809Y-82307257D02*
X34690476Y-82688209D01*
X34690476Y-82688209D02*
X34833333Y-82688209D01*
X34833333Y-82688209D02*
X34928571Y-82735828D01*
X34928571Y-82735828D02*
X34976190Y-82783447D01*
X34976190Y-82783447D02*
X35023809Y-82878685D01*
X35023809Y-82878685D02*
X35023809Y-83116780D01*
X35023809Y-83116780D02*
X34976190Y-83212018D01*
X34976190Y-83212018D02*
X34928571Y-83259638D01*
X34928571Y-83259638D02*
X34833333Y-83307257D01*
X34833333Y-83307257D02*
X34547619Y-83307257D01*
X34547619Y-83307257D02*
X34452381Y-83259638D01*
X34452381Y-83259638D02*
X34404762Y-83212018D01*
X128304819Y-97142857D02*
X127828628Y-97476190D01*
X128304819Y-97714285D02*
X127304819Y-97714285D01*
X127304819Y-97714285D02*
X127304819Y-97333333D01*
X127304819Y-97333333D02*
X127352438Y-97238095D01*
X127352438Y-97238095D02*
X127400057Y-97190476D01*
X127400057Y-97190476D02*
X127495295Y-97142857D01*
X127495295Y-97142857D02*
X127638152Y-97142857D01*
X127638152Y-97142857D02*
X127733390Y-97190476D01*
X127733390Y-97190476D02*
X127781009Y-97238095D01*
X127781009Y-97238095D02*
X127828628Y-97333333D01*
X127828628Y-97333333D02*
X127828628Y-97714285D01*
X128304819Y-96190476D02*
X128304819Y-96761904D01*
X128304819Y-96476190D02*
X127304819Y-96476190D01*
X127304819Y-96476190D02*
X127447676Y-96571428D01*
X127447676Y-96571428D02*
X127542914Y-96666666D01*
X127542914Y-96666666D02*
X127590533Y-96761904D01*
X127400057Y-95809523D02*
X127352438Y-95761904D01*
X127352438Y-95761904D02*
X127304819Y-95666666D01*
X127304819Y-95666666D02*
X127304819Y-95428571D01*
X127304819Y-95428571D02*
X127352438Y-95333333D01*
X127352438Y-95333333D02*
X127400057Y-95285714D01*
X127400057Y-95285714D02*
X127495295Y-95238095D01*
X127495295Y-95238095D02*
X127590533Y-95238095D01*
X127590533Y-95238095D02*
X127733390Y-95285714D01*
X127733390Y-95285714D02*
X128304819Y-95857142D01*
X128304819Y-95857142D02*
X128304819Y-95238095D01*
X64174819Y-89261904D02*
X64984342Y-89261904D01*
X64984342Y-89261904D02*
X65079580Y-89214285D01*
X65079580Y-89214285D02*
X65127200Y-89166666D01*
X65127200Y-89166666D02*
X65174819Y-89071428D01*
X65174819Y-89071428D02*
X65174819Y-88880952D01*
X65174819Y-88880952D02*
X65127200Y-88785714D01*
X65127200Y-88785714D02*
X65079580Y-88738095D01*
X65079580Y-88738095D02*
X64984342Y-88690476D01*
X64984342Y-88690476D02*
X64174819Y-88690476D01*
X64508152Y-87785714D02*
X65174819Y-87785714D01*
X64127200Y-88023809D02*
X64841485Y-88261904D01*
X64841485Y-88261904D02*
X64841485Y-87642857D01*
X62084819Y-115771904D02*
X62894342Y-115771904D01*
X62894342Y-115771904D02*
X62989580Y-115724285D01*
X62989580Y-115724285D02*
X63037200Y-115676666D01*
X63037200Y-115676666D02*
X63084819Y-115581428D01*
X63084819Y-115581428D02*
X63084819Y-115390952D01*
X63084819Y-115390952D02*
X63037200Y-115295714D01*
X63037200Y-115295714D02*
X62989580Y-115248095D01*
X62989580Y-115248095D02*
X62894342Y-115200476D01*
X62894342Y-115200476D02*
X62084819Y-115200476D01*
X62180057Y-114771904D02*
X62132438Y-114724285D01*
X62132438Y-114724285D02*
X62084819Y-114629047D01*
X62084819Y-114629047D02*
X62084819Y-114390952D01*
X62084819Y-114390952D02*
X62132438Y-114295714D01*
X62132438Y-114295714D02*
X62180057Y-114248095D01*
X62180057Y-114248095D02*
X62275295Y-114200476D01*
X62275295Y-114200476D02*
X62370533Y-114200476D01*
X62370533Y-114200476D02*
X62513390Y-114248095D01*
X62513390Y-114248095D02*
X63084819Y-114819523D01*
X63084819Y-114819523D02*
X63084819Y-114200476D01*
D11*
%TO.C,C6*%
X96125000Y-83065000D02*
X96500000Y-83065000D01*
X96312500Y-82877500D02*
X96312500Y-83252500D01*
X96929437Y-83440000D02*
X97629437Y-82740000D01*
X96929437Y-85560000D02*
X97629437Y-86260000D01*
X97629437Y-82740000D02*
X100260000Y-82740000D01*
X97629437Y-86260000D02*
X100260000Y-86260000D01*
X100260000Y-82740000D02*
X100260000Y-83440000D01*
X100260000Y-86260000D02*
X100260000Y-85560000D01*
%TO.C,C8*%
X174740000Y-108740000D02*
X174740000Y-109440000D01*
X174740000Y-112260000D02*
X174740000Y-111560000D01*
X177370563Y-108740000D02*
X174740000Y-108740000D01*
X177370563Y-112260000D02*
X174740000Y-112260000D01*
X178070563Y-109440000D02*
X177370563Y-108740000D01*
X178070563Y-111560000D02*
X177370563Y-112260000D01*
X178687500Y-112122500D02*
X178687500Y-111747500D01*
X178875000Y-111935000D02*
X178500000Y-111935000D01*
%TO.C,L1*%
X186300000Y-108200000D02*
X188000000Y-108200000D01*
X186300000Y-114800000D02*
X186300000Y-108200000D01*
X188000000Y-114800000D02*
X186300000Y-114800000D01*
X191000000Y-108200000D02*
X192700000Y-108200000D01*
X192700000Y-108200000D02*
X192700000Y-114800000D01*
X192700000Y-114800000D02*
X191000000Y-114800000D01*
%TO.C,C3*%
X57740000Y-101240000D02*
X57740000Y-101940000D01*
X57740000Y-104760000D02*
X57740000Y-104060000D01*
X60370563Y-101240000D02*
X57740000Y-101240000D01*
X60370563Y-104760000D02*
X57740000Y-104760000D01*
X61070563Y-101940000D02*
X60370563Y-101240000D01*
X61070563Y-104060000D02*
X60370563Y-104760000D01*
X61687500Y-104622500D02*
X61687500Y-104247500D01*
X61875000Y-104435000D02*
X61500000Y-104435000D01*
%TO.C,R16*%
X166272936Y-96265000D02*
X166727064Y-96265000D01*
X166272936Y-97735000D02*
X166727064Y-97735000D01*
%TO.C,C5*%
X55125000Y-129065000D02*
X55500000Y-129065000D01*
X55312500Y-128877500D02*
X55312500Y-129252500D01*
X55929437Y-129440000D02*
X56629437Y-128740000D01*
X55929437Y-131560000D02*
X56629437Y-132260000D01*
X56629437Y-128740000D02*
X59260000Y-128740000D01*
X56629437Y-132260000D02*
X59260000Y-132260000D01*
X59260000Y-128740000D02*
X59260000Y-129440000D01*
X59260000Y-132260000D02*
X59260000Y-131560000D01*
%TO.C,R7*%
X56814564Y-121765000D02*
X56360436Y-121765000D01*
X56814564Y-123235000D02*
X56360436Y-123235000D01*
%TO.C,C1*%
X26125000Y-78065000D02*
X26500000Y-78065000D01*
X26312500Y-77877500D02*
X26312500Y-78252500D01*
X26929437Y-78440000D02*
X27629437Y-77740000D01*
X26929437Y-80560000D02*
X27629437Y-81260000D01*
X27629437Y-77740000D02*
X30260000Y-77740000D01*
X27629437Y-81260000D02*
X30260000Y-81260000D01*
X30260000Y-77740000D02*
X30260000Y-78440000D01*
X30260000Y-81260000D02*
X30260000Y-80560000D01*
%TO.C,C4*%
X66125000Y-129065000D02*
X66500000Y-129065000D01*
X66312500Y-128877500D02*
X66312500Y-129252500D01*
X66929437Y-129440000D02*
X67629437Y-128740000D01*
X66929437Y-131560000D02*
X67629437Y-132260000D01*
X67629437Y-128740000D02*
X70260000Y-128740000D01*
X67629437Y-132260000D02*
X70260000Y-132260000D01*
X70260000Y-128740000D02*
X70260000Y-129440000D01*
X70260000Y-132260000D02*
X70260000Y-131560000D01*
%TO.C,J1*%
X24092500Y-90050000D02*
X24092500Y-92250000D01*
X24432500Y-90340000D02*
X24432500Y-92250000D01*
X24432500Y-90340000D02*
X32562500Y-90340000D01*
X24432500Y-92250000D02*
X24432500Y-97080000D01*
X25392500Y-90050000D02*
X24092500Y-90050000D01*
X25702500Y-88950000D02*
X31292500Y-88950000D01*
X25702500Y-89200000D02*
X31292500Y-89200000D01*
X25702500Y-90090000D02*
X31292500Y-90090000D01*
X25702500Y-90340000D02*
X25702500Y-88950000D01*
X28112500Y-96820000D02*
X28882500Y-96820000D01*
X28112500Y-97080000D02*
X24432500Y-97080000D01*
X28112500Y-97080000D02*
X28112500Y-96820000D01*
X28882500Y-96820000D02*
X28882500Y-97080000D01*
X28882500Y-97080000D02*
X32562500Y-97080000D01*
X31292500Y-90340000D02*
X31292500Y-88950000D01*
X32562500Y-90340000D02*
X32562500Y-92250000D01*
X32562500Y-97080000D02*
X32562500Y-92250000D01*
%TO.C,Q2*%
X158570000Y-95290000D02*
X154970000Y-95290000D01*
X156770000Y-99740000D02*
G75*
G02*
X154931522Y-95301522I0J2600000D01*
G01*
X158608478Y-95301522D02*
G75*
G02*
X156770000Y-99740001I-1838478J-1838478D01*
G01*
%TO.C,R9*%
X99185436Y-102765000D02*
X99639564Y-102765000D01*
X99185436Y-104235000D02*
X99639564Y-104235000D01*
%TO.C,R17*%
X174265000Y-98639564D02*
X174265000Y-98185436D01*
X175735000Y-98639564D02*
X175735000Y-98185436D01*
%TO.C,R8*%
X155727064Y-123765000D02*
X155272936Y-123765000D01*
X155727064Y-125235000D02*
X155272936Y-125235000D01*
%TO.C,R13*%
X137685436Y-123765000D02*
X138139564Y-123765000D01*
X137685436Y-125235000D02*
X138139564Y-125235000D01*
%TO.C,R11*%
X98765000Y-95860436D02*
X98765000Y-96314564D01*
X100235000Y-95860436D02*
X100235000Y-96314564D01*
%TO.C,R5*%
X73265000Y-84772936D02*
X73265000Y-85227064D01*
X74735000Y-84772936D02*
X74735000Y-85227064D01*
%TO.C,U3*%
X24240000Y-56360000D02*
X24240000Y-66640000D01*
X24240000Y-66640000D02*
X49760000Y-66640000D01*
X26780000Y-58850000D02*
X26780000Y-64150000D01*
X26780000Y-64150000D02*
X47220000Y-64150000D01*
X47220000Y-58850000D02*
X26780000Y-58850000D01*
X47220000Y-60500000D02*
X47220000Y-58850000D01*
X47220000Y-64150000D02*
X47220000Y-62500000D01*
X49760000Y-56360000D02*
X24240000Y-56360000D01*
X49760000Y-66640000D02*
X49760000Y-56360000D01*
X47220000Y-62500000D02*
G75*
G02*
X47220000Y-60500000I0J1000000D01*
G01*
%TO.C,U5*%
X112355000Y-93780000D02*
X112355000Y-114220000D01*
X112355000Y-114220000D02*
X117655000Y-114220000D01*
X114005000Y-93780000D02*
X112355000Y-93780000D01*
X117655000Y-93780000D02*
X116005000Y-93780000D01*
X117655000Y-114220000D02*
X117655000Y-93780000D01*
X116005000Y-93780000D02*
G75*
G02*
X114005000Y-93780000I-1000000J0D01*
G01*
%TO.C,R15*%
X139185436Y-96765000D02*
X139639564Y-96765000D01*
X139185436Y-98235000D02*
X139639564Y-98235000D01*
%TO.C,R6*%
X36772936Y-106265000D02*
X37227064Y-106265000D01*
X36772936Y-107735000D02*
X37227064Y-107735000D01*
%TO.C,R1*%
X61139564Y-78765000D02*
X60685436Y-78765000D01*
X61139564Y-80235000D02*
X60685436Y-80235000D01*
%TO.C,Q4*%
X154700000Y-116710000D02*
X158300000Y-116710000D01*
X154661522Y-116698478D02*
G75*
G02*
X156500000Y-112259999I1838478J1838478D01*
G01*
X156500000Y-112260000D02*
G75*
G02*
X158338478Y-116698478I0J-2600000D01*
G01*
%TO.C,R10*%
X115185436Y-83765000D02*
X115639564Y-83765000D01*
X115185436Y-85235000D02*
X115639564Y-85235000D01*
%TO.C,Q3*%
X187684000Y-94380000D02*
X187684000Y-104620000D01*
X190815000Y-94380000D02*
X190815000Y-104620000D01*
X192325000Y-94380000D02*
X187684000Y-94380000D01*
X192325000Y-94380000D02*
X192325000Y-104620000D01*
X192325000Y-97650000D02*
X190815000Y-97650000D01*
X192325000Y-101351000D02*
X190815000Y-101351000D01*
X192325000Y-104620000D02*
X187684000Y-104620000D01*
%TO.C,C7*%
X128240000Y-106740000D02*
X128940000Y-106740000D01*
X128240000Y-109370563D02*
X128240000Y-106740000D01*
X128377500Y-110687500D02*
X128752500Y-110687500D01*
X128565000Y-110875000D02*
X128565000Y-110500000D01*
X128940000Y-110070563D02*
X128240000Y-109370563D01*
X131060000Y-110070563D02*
X131760000Y-109370563D01*
X131760000Y-106740000D02*
X131060000Y-106740000D01*
X131760000Y-109370563D02*
X131760000Y-106740000D01*
%TO.C,R4*%
X34272936Y-78765000D02*
X34727064Y-78765000D01*
X34272936Y-80235000D02*
X34727064Y-80235000D01*
%TO.C,LS1*%
X154050000Y-139100000D02*
X154050000Y-140100000D01*
X154050000Y-140100000D02*
X155050000Y-140100000D01*
X154400000Y-133400000D02*
X166600000Y-133400000D01*
X154400000Y-137550000D02*
X154400000Y-133400000D01*
X164900000Y-139600000D02*
X156100000Y-139600000D01*
X166600000Y-133400000D02*
X166600000Y-137550000D01*
%TO.C,R3*%
X34272936Y-84265000D02*
X34727064Y-84265000D01*
X34272936Y-85735000D02*
X34727064Y-85735000D01*
%TO.C,R12*%
X128765000Y-96727064D02*
X128765000Y-96272936D01*
X130235000Y-96727064D02*
X130235000Y-96272936D01*
%TO.C,U4*%
X40740000Y-83360000D02*
X40740000Y-93640000D01*
X40740000Y-93640000D02*
X66260000Y-93640000D01*
X43280000Y-85850000D02*
X43280000Y-91150000D01*
X43280000Y-91150000D02*
X63720000Y-91150000D01*
X63720000Y-85850000D02*
X43280000Y-85850000D01*
X63720000Y-87500000D02*
X63720000Y-85850000D01*
X63720000Y-91150000D02*
X63720000Y-89500000D01*
X66260000Y-83360000D02*
X40740000Y-83360000D01*
X66260000Y-93640000D02*
X66260000Y-83360000D01*
X63720000Y-89500000D02*
G75*
G02*
X63720000Y-87500000I0J1000000D01*
G01*
%TO.C,U2*%
X51350000Y-112360000D02*
X51350000Y-117660000D01*
X51350000Y-117660000D02*
X61630000Y-117660000D01*
X61630000Y-112360000D02*
X51350000Y-112360000D01*
X61630000Y-114010000D02*
X61630000Y-112360000D01*
X61630000Y-117660000D02*
X61630000Y-116010000D01*
X61630000Y-116010000D02*
G75*
G02*
X61630000Y-114010000I0J1000000D01*
G01*
%TD*%
M02*
