%TF.GenerationSoftware,KiCad,Pcbnew,8.0.8*%
%TF.CreationDate,2026-01-13T22:52:51+05:30*%
%TF.ProjectId,pre audio amplifier,70726520-6175-4646-996f-20616d706c69,rev?*%
%TF.SameCoordinates,Original*%
%TF.FileFunction,Drillmap*%
%TF.FilePolarity,Positive*%
%FSLAX45Y45*%
G04 Gerber Fmt 4.5, Leading zero omitted, Abs format (unit mm)*
G04 Created by KiCad (PCBNEW 8.0.8) date 2026-01-13 22:52:51*
%MOMM*%
%LPD*%
G01*
G04 APERTURE LIST*
%ADD10C,0.050000*%
%ADD11C,0.200000*%
G04 APERTURE END LIST*
D10*
X1850000Y-4350000D02*
X20600000Y-4350000D01*
X20600000Y-14650000D01*
X1850000Y-14650000D01*
X1850000Y-4350000D01*
D11*
X2108277Y-14963984D02*
X2108277Y-14763984D01*
X2108277Y-14763984D02*
X2155896Y-14763984D01*
X2155896Y-14763984D02*
X2184467Y-14773508D01*
X2184467Y-14773508D02*
X2203515Y-14792555D01*
X2203515Y-14792555D02*
X2213039Y-14811603D01*
X2213039Y-14811603D02*
X2222563Y-14849698D01*
X2222563Y-14849698D02*
X2222563Y-14878269D01*
X2222563Y-14878269D02*
X2213039Y-14916365D01*
X2213039Y-14916365D02*
X2203515Y-14935412D01*
X2203515Y-14935412D02*
X2184467Y-14954460D01*
X2184467Y-14954460D02*
X2155896Y-14963984D01*
X2155896Y-14963984D02*
X2108277Y-14963984D01*
X2308277Y-14963984D02*
X2308277Y-14830650D01*
X2308277Y-14868746D02*
X2317801Y-14849698D01*
X2317801Y-14849698D02*
X2327324Y-14840174D01*
X2327324Y-14840174D02*
X2346372Y-14830650D01*
X2346372Y-14830650D02*
X2365420Y-14830650D01*
X2432086Y-14963984D02*
X2432086Y-14830650D01*
X2432086Y-14763984D02*
X2422563Y-14773508D01*
X2422563Y-14773508D02*
X2432086Y-14783031D01*
X2432086Y-14783031D02*
X2441610Y-14773508D01*
X2441610Y-14773508D02*
X2432086Y-14763984D01*
X2432086Y-14763984D02*
X2432086Y-14783031D01*
X2555896Y-14963984D02*
X2536848Y-14954460D01*
X2536848Y-14954460D02*
X2527324Y-14935412D01*
X2527324Y-14935412D02*
X2527324Y-14763984D01*
X2660658Y-14963984D02*
X2641610Y-14954460D01*
X2641610Y-14954460D02*
X2632086Y-14935412D01*
X2632086Y-14935412D02*
X2632086Y-14763984D01*
X2889229Y-14963984D02*
X2889229Y-14763984D01*
X2889229Y-14763984D02*
X2955896Y-14906841D01*
X2955896Y-14906841D02*
X3022562Y-14763984D01*
X3022562Y-14763984D02*
X3022562Y-14963984D01*
X3203515Y-14963984D02*
X3203515Y-14859222D01*
X3203515Y-14859222D02*
X3193991Y-14840174D01*
X3193991Y-14840174D02*
X3174943Y-14830650D01*
X3174943Y-14830650D02*
X3136848Y-14830650D01*
X3136848Y-14830650D02*
X3117801Y-14840174D01*
X3203515Y-14954460D02*
X3184467Y-14963984D01*
X3184467Y-14963984D02*
X3136848Y-14963984D01*
X3136848Y-14963984D02*
X3117801Y-14954460D01*
X3117801Y-14954460D02*
X3108277Y-14935412D01*
X3108277Y-14935412D02*
X3108277Y-14916365D01*
X3108277Y-14916365D02*
X3117801Y-14897317D01*
X3117801Y-14897317D02*
X3136848Y-14887793D01*
X3136848Y-14887793D02*
X3184467Y-14887793D01*
X3184467Y-14887793D02*
X3203515Y-14878269D01*
X3298753Y-14830650D02*
X3298753Y-15030650D01*
X3298753Y-14840174D02*
X3317801Y-14830650D01*
X3317801Y-14830650D02*
X3355896Y-14830650D01*
X3355896Y-14830650D02*
X3374943Y-14840174D01*
X3374943Y-14840174D02*
X3384467Y-14849698D01*
X3384467Y-14849698D02*
X3393991Y-14868746D01*
X3393991Y-14868746D02*
X3393991Y-14925888D01*
X3393991Y-14925888D02*
X3384467Y-14944936D01*
X3384467Y-14944936D02*
X3374943Y-14954460D01*
X3374943Y-14954460D02*
X3355896Y-14963984D01*
X3355896Y-14963984D02*
X3317801Y-14963984D01*
X3317801Y-14963984D02*
X3298753Y-14954460D01*
X3479705Y-14944936D02*
X3489229Y-14954460D01*
X3489229Y-14954460D02*
X3479705Y-14963984D01*
X3479705Y-14963984D02*
X3470182Y-14954460D01*
X3470182Y-14954460D02*
X3479705Y-14944936D01*
X3479705Y-14944936D02*
X3479705Y-14963984D01*
X3479705Y-14840174D02*
X3489229Y-14849698D01*
X3489229Y-14849698D02*
X3479705Y-14859222D01*
X3479705Y-14859222D02*
X3470182Y-14849698D01*
X3470182Y-14849698D02*
X3479705Y-14840174D01*
X3479705Y-14840174D02*
X3479705Y-14859222D01*
M02*
